<svg id="svg" version="1.1" width="400" height="60.52434456928839" xmlns="http://www.w3.org/2000/svg" xmlns:xlink="http://www.w3.org/1999/xlink" style="display: block;"><g id="svgg"><path id="path0" d="" stroke="none" fill="#000000" fill-rule="evenodd"></path><path id="path1" d="M65.125 15.123 C 65.606 15.157,66.394 15.157,66.875 15.123 C 67.356 15.089,66.962 15.062,66.000 15.062 C 65.037 15.062,64.644 15.089,65.125 15.123 M277.533 18.194 C 277.511 19.034,277.429 19.501,277.292 19.556 C 277.128 19.622,277.130 19.643,277.297 19.654 C 277.619 19.673,277.689 19.332,277.624 18.067 L 277.565 16.917 277.533 18.194 M347.724 18.250 C 347.724 18.983,347.754 19.263,347.789 18.871 C 347.824 18.479,347.824 17.879,347.788 17.537 C 347.752 17.196,347.723 17.517,347.724 18.250 M362.744 24.750 C 362.744 29.058,362.765 30.845,362.791 28.720 C 362.818 26.595,362.818 23.070,362.792 20.886 C 362.765 18.703,362.744 20.442,362.744 24.750 M281.321 18.612 L 280.917 19.057 281.370 18.737 C 281.619 18.561,281.825 18.360,281.828 18.292 C 281.837 18.086,281.745 18.144,281.321 18.612 M104.381 20.290 C 104.912 20.323,105.737 20.323,106.214 20.289 C 106.692 20.256,106.258 20.229,105.250 20.229 C 104.242 20.229,103.851 20.257,104.381 20.290 M285.000 25.000 C 285.000 27.047,285.043 28.679,285.096 28.626 C 285.209 28.513,285.191 21.468,285.077 21.355 C 285.035 21.313,285.000 22.953,285.000 25.000 M335.372 27.532 L 335.412 32.750 335.458 27.667 L 335.505 22.584 335.933 23.084 L 336.361 23.583 336.006 23.047 C 335.811 22.752,335.580 22.466,335.492 22.412 C 335.392 22.350,335.348 24.255,335.372 27.532 M103.283 23.248 C 103.435 23.568,103.589 23.800,103.625 23.763 C 103.702 23.687,103.196 22.667,103.082 22.667 C 103.040 22.667,103.130 22.928,103.283 23.248 M169.058 32.667 C 169.058 33.446,169.087 33.765,169.122 33.375 C 169.157 32.985,169.157 32.348,169.122 31.958 C 169.087 31.569,169.058 31.887,169.058 32.667 M132.071 36.043 L 131.583 36.582 132.083 36.166 C 132.358 35.937,132.615 35.731,132.653 35.708 C 132.691 35.685,132.686 35.630,132.641 35.585 C 132.596 35.540,132.340 35.746,132.071 36.043 M180.458 37.284 C 180.665 37.324,181.002 37.324,181.208 37.284 C 181.415 37.245,181.246 37.212,180.833 37.212 C 180.421 37.212,180.252 37.245,180.458 37.284 M70.711 37.620 C 70.964 37.658,71.339 37.657,71.544 37.617 C 71.749 37.578,71.542 37.546,71.083 37.548 C 70.625 37.549,70.457 37.581,70.711 37.620 M94.211 37.620 C 94.464 37.658,94.839 37.657,95.044 37.617 C 95.249 37.578,95.042 37.546,94.583 37.548 C 94.125 37.549,93.957 37.581,94.211 37.620 M137.542 37.619 C 137.794 37.658,138.206 37.658,138.458 37.619 C 138.710 37.581,138.504 37.550,138.000 37.550 C 137.496 37.550,137.290 37.581,137.542 37.619 M169.708 37.621 C 170.052 37.657,170.615 37.657,170.958 37.621 C 171.302 37.585,171.021 37.556,170.333 37.556 C 169.646 37.556,169.365 37.585,169.708 37.621 M169.072 41.750 C 169.072 43.950,169.096 44.827,169.125 43.699 C 169.153 42.571,169.153 40.771,169.124 39.699 C 169.095 38.627,169.072 39.550,169.072 41.750 M364.375 38.282 C 364.535 38.323,364.798 38.323,364.958 38.282 C 365.119 38.240,364.988 38.205,364.667 38.205 C 364.346 38.205,364.215 38.240,364.375 38.282 M283.534 42.032 C 283.515 44.020,283.556 45.682,283.625 45.725 C 283.694 45.767,283.731 44.703,283.707 43.359 C 283.627 38.851,283.567 38.390,283.534 42.032 M339.883 39.833 C 339.883 40.337,339.915 40.544,339.953 40.292 C 339.991 40.040,339.991 39.627,339.953 39.375 C 339.915 39.123,339.883 39.329,339.883 39.833 M113.740 45.000 C 113.740 47.612,113.763 48.681,113.791 47.375 C 113.819 46.069,113.819 43.931,113.791 42.625 C 113.763 41.319,113.740 42.387,113.740 45.000 M319.903 43.667 C 319.903 45.362,319.927 46.056,319.958 45.208 C 319.988 44.360,319.988 42.973,319.958 42.125 C 319.927 41.277,319.903 41.971,319.903 43.667 M339.898 43.583 C 339.898 44.775,339.925 45.241,339.957 44.618 C 339.989 43.996,339.989 43.021,339.957 42.451 C 339.924 41.882,339.898 42.392,339.898 43.583 M311.714 42.417 C 311.716 42.875,311.748 43.043,311.786 42.789 C 311.825 42.536,311.824 42.161,311.784 41.956 C 311.744 41.751,311.713 41.958,311.714 42.417 M137.387 46.942 C 137.434 46.989,137.822 47.028,138.250 47.028 C 138.678 47.028,139.066 46.989,139.113 46.942 C 139.160 46.896,138.772 46.857,138.250 46.857 C 137.728 46.857,137.340 46.896,137.387 46.942 " stroke="none" fill="#242424" fill-rule="evenodd"></path><path id="path2" d="" stroke="none" fill="#003333" fill-rule="evenodd"></path><path id="path3" d="M356.076 26.083 C 356.076 29.658,356.098 31.097,356.125 29.281 C 356.152 27.464,356.152 24.539,356.125 22.781 C 356.098 21.022,356.076 22.508,356.076 26.083 M277.552 31.583 C 277.553 32.133,277.584 32.338,277.621 32.039 C 277.658 31.739,277.657 31.289,277.619 31.039 C 277.581 30.788,277.551 31.033,277.552 31.583 M164.076 40.167 C 164.076 44.063,164.098 45.656,164.125 43.708 C 164.151 41.760,164.151 38.573,164.125 36.625 C 164.098 34.677,164.076 36.271,164.076 40.167 M108.539 35.333 C 108.539 35.654,108.573 35.785,108.615 35.625 C 108.657 35.465,108.657 35.202,108.615 35.042 C 108.573 34.881,108.539 35.012,108.539 35.333 " stroke="none" fill="#174646" fill-rule="evenodd"></path><path id="path4" d="M69.083 9.333 C 69.027 9.425,68.685 9.500,68.323 9.500 C 67.962 9.500,67.667 9.566,67.667 9.648 C 67.667 9.729,67.329 9.846,66.917 9.908 C 66.504 9.970,66.167 10.091,66.167 10.177 C 66.167 10.263,66.073 10.333,65.958 10.334 C 65.629 10.334,64.198 11.834,63.892 12.500 C 62.861 14.742,63.102 15.025,66.042 15.025 C 68.015 15.025,68.489 14.832,68.506 14.023 C 68.532 12.703,71.680 12.090,72.802 13.186 C 73.834 14.196,73.430 15.498,72.000 15.775 C 71.520 15.868,69.243 16.184,68.372 16.279 C 67.889 16.332,67.453 16.441,67.404 16.521 C 67.354 16.601,67.056 16.667,66.740 16.667 C 66.425 16.667,66.167 16.742,66.167 16.833 C 66.167 16.925,66.021 17.000,65.844 17.000 C 64.837 17.000,63.167 18.773,63.167 19.840 C 63.167 20.111,63.092 20.333,63.000 20.333 C 62.906 20.333,62.833 20.806,62.833 21.417 C 62.833 22.028,62.906 22.500,63.000 22.500 C 63.092 22.500,63.167 22.683,63.167 22.906 C 63.167 23.936,64.559 25.569,65.604 25.765 C 65.913 25.823,66.167 25.937,66.167 26.019 C 66.167 26.226,70.955 26.208,71.083 26.000 C 71.140 25.908,71.335 25.833,71.516 25.833 C 71.909 25.833,73.022 25.288,73.399 24.910 C 73.645 24.665,73.667 24.670,73.667 24.974 C 73.667 25.811,73.728 25.833,76.073 25.833 C 78.501 25.833,79.091 25.552,78.534 24.659 C 78.388 24.425,78.333 22.776,78.333 18.586 C 78.333 14.862,78.275 12.833,78.167 12.833 C 78.075 12.833,78.000 12.682,78.000 12.498 C 78.000 11.748,77.045 10.618,76.011 10.143 C 75.592 9.951,75.120 9.728,74.961 9.647 C 74.801 9.566,74.375 9.500,74.012 9.500 C 73.650 9.500,73.307 9.425,73.250 9.333 C 73.191 9.237,72.307 9.167,71.167 9.167 C 70.026 9.167,69.143 9.237,69.083 9.333 M108.250 9.333 C 108.193 9.425,107.851 9.500,107.490 9.500 C 107.129 9.500,106.833 9.575,106.833 9.667 C 106.833 9.758,106.676 9.833,106.484 9.833 C 105.256 9.833,103.552 11.518,103.277 13.004 C 103.235 13.231,103.148 13.692,103.084 14.028 C 102.798 15.532,103.899 17.468,105.391 18.082 C 105.772 18.239,106.214 18.435,106.373 18.517 C 106.532 18.599,106.846 18.667,107.071 18.667 C 107.296 18.667,107.527 18.742,107.583 18.833 C 107.640 18.925,107.903 19.000,108.169 19.000 C 108.434 19.000,108.823 19.067,109.034 19.149 C 109.244 19.231,109.754 19.389,110.167 19.500 C 112.020 19.997,112.833 20.396,112.833 20.808 C 112.833 20.898,112.927 21.016,113.042 21.069 C 113.208 21.147,113.208 21.186,113.042 21.264 C 112.927 21.317,112.833 21.500,112.833 21.669 C 112.833 22.009,112.019 22.667,111.599 22.667 C 111.453 22.667,111.333 22.742,111.333 22.833 C 111.333 22.925,110.921 23.000,110.417 23.000 C 109.912 23.000,109.500 22.925,109.500 22.833 C 109.500 22.742,109.326 22.667,109.113 22.667 C 108.474 22.667,107.619 21.723,107.274 20.635 C 107.126 20.168,103.387 20.122,102.958 20.582 C 102.762 20.794,102.688 21.037,102.755 21.249 C 102.813 21.433,102.897 21.771,102.942 22.000 C 103.276 23.696,105.547 25.818,107.042 25.830 C 107.294 25.832,107.500 25.908,107.500 26.000 C 107.500 26.105,108.583 26.167,110.417 26.167 C 112.250 26.167,113.333 26.105,113.333 26.000 C 113.333 25.908,113.515 25.833,113.736 25.833 C 116.691 25.833,119.031 20.978,117.308 18.422 C 116.728 17.562,115.630 16.682,115.125 16.672 C 114.965 16.669,114.833 16.600,114.833 16.519 C 114.833 16.438,114.627 16.330,114.375 16.280 C 114.123 16.229,113.542 16.106,113.083 16.006 C 112.625 15.905,112.121 15.802,111.963 15.777 C 111.805 15.752,111.623 15.679,111.560 15.615 C 111.496 15.552,111.161 15.500,110.815 15.500 C 110.469 15.500,110.140 15.425,110.083 15.333 C 110.027 15.242,109.834 15.167,109.655 15.167 C 108.987 15.167,108.000 14.364,108.000 13.821 C 108.000 13.452,108.361 13.000,108.655 13.000 C 108.753 13.000,108.833 12.925,108.833 12.833 C 108.833 12.738,109.328 12.667,109.984 12.667 C 111.471 12.667,112.282 13.073,112.750 14.052 L 113.083 14.750 114.976 14.797 C 117.281 14.855,117.914 14.304,117.186 12.873 C 117.105 12.714,116.941 12.375,116.822 12.120 C 116.359 11.132,114.725 9.833,113.943 9.833 C 113.802 9.833,113.640 9.758,113.583 9.667 C 113.527 9.575,113.227 9.500,112.917 9.500 C 112.607 9.500,112.307 9.425,112.250 9.333 C 112.191 9.238,111.335 9.167,110.250 9.167 C 109.165 9.167,108.309 9.238,108.250 9.333 M78.607 9.745 C 78.365 9.929,78.317 10.120,78.389 10.615 C 78.562 11.805,78.704 12.333,78.852 12.333 C 78.934 12.333,79.000 12.543,79.000 12.800 C 79.000 13.057,79.062 13.338,79.138 13.425 C 79.215 13.512,79.409 14.071,79.571 14.667 C 79.732 15.262,79.933 15.880,80.016 16.039 C 80.099 16.199,80.167 16.475,80.167 16.655 C 80.167 16.834,80.242 17.027,80.333 17.083 C 80.425 17.140,80.500 17.369,80.500 17.593 C 80.500 17.817,80.567 18.000,80.648 18.000 C 80.730 18.000,80.834 18.244,80.880 18.542 C 80.925 18.840,81.016 19.271,81.082 19.500 C 81.147 19.729,81.239 20.123,81.286 20.375 C 81.333 20.627,81.429 20.833,81.500 20.833 C 81.571 20.833,81.675 21.058,81.731 21.333 C 81.787 21.608,81.879 22.058,81.936 22.333 C 81.992 22.608,82.104 22.833,82.186 22.833 C 82.267 22.833,82.333 23.008,82.333 23.222 C 82.333 23.436,82.390 23.667,82.458 23.736 C 82.527 23.805,82.589 23.911,82.596 23.972 C 82.807 25.786,82.886 25.833,85.719 25.833 L 88.129 25.833 88.217 25.375 C 88.266 25.123,88.392 24.617,88.497 24.250 C 88.603 23.883,88.754 23.321,88.833 23.000 C 88.913 22.679,89.065 22.117,89.171 21.750 C 89.277 21.383,89.445 20.615,89.543 20.042 C 89.641 19.469,89.784 19.000,89.861 19.000 C 89.937 19.000,90.000 18.742,90.000 18.427 C 90.000 18.111,90.075 17.807,90.167 17.750 C 90.258 17.693,90.333 17.393,90.333 17.083 C 90.333 16.773,90.408 16.473,90.500 16.417 C 90.592 16.360,90.667 16.464,90.667 16.647 C 90.667 16.830,90.742 17.027,90.833 17.083 C 90.925 17.140,91.000 17.370,91.000 17.595 C 91.000 17.820,91.066 18.135,91.148 18.294 C 91.337 18.664,92.014 21.390,92.120 22.208 C 92.165 22.552,92.269 22.833,92.351 22.833 C 92.433 22.833,92.500 23.054,92.500 23.323 C 92.500 23.593,92.575 23.860,92.667 23.917 C 92.758 23.973,92.833 24.192,92.833 24.402 C 92.833 24.612,92.916 25.020,93.016 25.308 L 93.199 25.833 95.680 25.833 L 98.160 25.833 98.257 25.375 C 98.310 25.123,98.424 24.786,98.510 24.627 C 98.596 24.468,98.667 24.149,98.667 23.919 C 98.667 23.689,98.742 23.500,98.833 23.500 C 98.925 23.500,99.000 23.275,99.000 23.000 C 99.000 22.725,99.066 22.500,99.148 22.500 C 99.229 22.500,99.332 22.294,99.378 22.042 C 99.494 21.394,100.168 19.140,100.349 18.794 C 100.432 18.635,100.500 18.358,100.500 18.179 C 100.500 18.000,100.575 17.807,100.667 17.750 C 100.758 17.693,100.833 17.468,100.833 17.250 C 100.833 17.032,100.904 16.809,100.990 16.756 C 101.077 16.703,101.198 16.322,101.260 15.911 C 101.321 15.499,101.438 15.122,101.519 15.071 C 101.600 15.021,101.667 14.802,101.667 14.583 C 101.667 14.365,101.742 14.140,101.833 14.083 C 101.925 14.027,102.000 13.834,102.000 13.655 C 102.000 13.475,102.073 13.199,102.162 13.039 C 102.343 12.716,103.000 10.485,103.000 10.195 C 103.000 9.752,102.018 9.500,100.298 9.500 C 98.418 9.500,98.094 9.671,97.806 10.813 C 97.746 11.053,97.531 11.925,97.330 12.750 C 97.129 13.575,96.908 14.400,96.839 14.583 C 96.532 15.396,96.333 16.134,96.333 16.460 C 96.333 16.655,96.268 16.854,96.189 16.903 C 96.109 16.952,95.997 17.284,95.940 17.640 C 95.883 17.996,95.730 18.540,95.600 18.850 L 95.363 19.413 95.254 18.748 C 95.194 18.382,95.075 17.911,94.989 17.700 C 94.904 17.490,94.833 17.101,94.833 16.835 C 94.833 16.570,94.758 16.307,94.667 16.250 C 94.575 16.193,94.500 15.931,94.500 15.667 C 94.500 15.402,94.433 15.145,94.352 15.095 C 94.270 15.044,94.166 14.759,94.120 14.460 C 94.075 14.161,93.988 13.729,93.928 13.500 C 93.799 13.012,93.519 11.647,93.389 10.880 C 93.037 8.802,88.001 8.866,88.000 10.948 C 88.000 11.241,87.925 11.527,87.833 11.583 C 87.742 11.640,87.667 11.902,87.667 12.167 C 87.667 12.431,87.600 12.688,87.518 12.739 C 87.436 12.790,87.333 13.113,87.289 13.457 C 87.161 14.457,86.809 16.058,86.648 16.373 C 86.567 16.532,86.500 16.836,86.500 17.048 C 86.500 17.260,86.430 17.505,86.345 17.592 C 86.260 17.679,86.166 18.012,86.137 18.333 C 86.061 19.158,85.601 19.127,85.532 18.292 C 85.503 17.948,85.409 17.667,85.323 17.667 C 85.237 17.667,85.167 17.510,85.167 17.319 C 85.167 16.965,84.721 15.023,84.501 14.417 C 84.177 13.525,84.000 12.860,84.000 12.530 C 84.000 12.330,83.934 12.167,83.853 12.167 C 83.771 12.167,83.652 11.744,83.588 11.228 C 83.398 9.708,83.055 9.499,80.767 9.505 C 79.440 9.509,78.829 9.577,78.607 9.745 M211.667 31.996 C 211.667 51.821,211.592 50.433,212.645 50.063 L 213.083 49.909 213.083 31.996 L 213.083 14.083 212.375 14.032 L 211.667 13.981 211.667 31.996 M285.750 16.500 C 285.693 16.592,285.425 16.667,285.155 16.667 C 284.635 16.667,284.611 16.676,283.167 17.416 C 281.890 18.071,279.937 20.108,279.647 21.088 C 279.526 21.498,279.369 21.833,279.297 21.833 C 279.225 21.833,279.167 22.021,279.167 22.250 C 279.167 22.479,279.092 22.667,279.000 22.667 C 278.897 22.667,278.833 23.556,278.833 25.000 C 278.833 26.444,278.897 27.333,279.000 27.333 C 279.092 27.333,279.167 27.521,279.167 27.750 C 279.167 27.979,279.242 28.167,279.333 28.167 C 279.425 28.167,279.500 28.283,279.500 28.425 C 279.500 28.733,279.905 29.546,280.300 30.029 C 281.036 30.931,282.406 32.167,282.669 32.167 C 282.759 32.167,282.833 32.224,282.833 32.294 C 282.833 32.440,284.018 32.979,284.501 33.053 C 284.679 33.080,284.877 33.154,284.940 33.218 C 285.004 33.281,286.037 33.332,287.236 33.331 C 289.387 33.328,289.759 33.261,291.167 32.622 C 293.036 31.774,295.209 29.123,295.444 27.403 C 295.500 26.998,295.610 26.667,295.689 26.667 C 295.769 26.667,295.833 25.917,295.833 25.000 C 295.833 24.083,295.769 23.333,295.690 23.333 C 295.611 23.333,295.504 22.971,295.451 22.529 C 295.363 21.789,294.773 20.493,294.464 20.361 C 294.392 20.331,294.333 20.210,294.333 20.094 C 294.333 19.599,292.339 17.859,291.140 17.306 C 290.742 17.123,290.286 16.904,290.127 16.820 C 289.968 16.736,289.616 16.667,289.345 16.667 C 289.075 16.667,288.807 16.592,288.750 16.500 C 288.693 16.408,288.018 16.333,287.250 16.333 C 286.482 16.333,285.807 16.408,285.750 16.500 M309.167 16.500 C 309.167 16.592,308.726 16.667,308.177 16.667 C 307.632 16.667,307.140 16.742,307.083 16.833 C 307.027 16.925,306.802 17.000,306.583 17.000 C 306.365 17.000,306.144 17.069,306.091 17.154 C 306.039 17.238,305.772 17.357,305.498 17.417 C 305.224 17.477,305.000 17.579,305.000 17.644 C 305.000 17.709,304.794 17.885,304.542 18.035 C 303.383 18.727,301.667 21.107,301.667 22.020 C 301.667 22.273,301.592 22.527,301.500 22.583 C 301.294 22.711,301.273 27.110,301.478 27.236 C 301.558 27.286,301.672 27.631,301.731 28.004 C 301.836 28.659,302.071 29.202,302.417 29.591 C 302.508 29.694,302.733 29.988,302.917 30.244 C 303.231 30.684,303.496 30.958,304.377 31.754 C 306.150 33.357,310.251 33.812,313.050 32.717 C 315.852 31.620,318.129 28.382,316.464 27.862 C 315.263 27.487,314.167 27.412,314.167 27.705 C 314.167 28.034,312.406 29.833,312.083 29.833 C 311.946 29.833,311.833 29.908,311.833 30.000 C 311.833 30.092,311.646 30.167,311.417 30.167 C 311.188 30.167,311.000 30.242,311.000 30.333 C 311.000 30.572,308.628 30.542,307.831 30.293 C 307.465 30.179,307.167 30.029,307.167 29.959 C 307.167 29.890,307.069 29.833,306.949 29.833 C 306.625 29.833,305.167 28.419,305.167 28.105 C 305.167 27.956,305.110 27.833,305.041 27.833 C 304.307 27.833,304.148 23.590,304.832 22.238 C 306.491 18.956,310.776 18.399,313.451 21.118 C 314.279 21.960,315.333 22.360,315.333 21.833 C 315.333 21.742,315.596 21.667,315.917 21.667 C 316.237 21.667,316.500 21.592,316.500 21.500 C 316.500 21.408,316.650 21.333,316.833 21.333 C 317.017 21.333,317.167 21.287,317.167 21.231 C 317.167 21.086,316.450 19.786,316.250 19.569 C 316.158 19.470,315.934 19.188,315.752 18.944 C 315.570 18.700,315.354 18.500,315.272 18.500 C 315.190 18.500,315.001 18.368,314.853 18.206 C 314.477 17.797,312.942 17.000,312.529 17.000 C 312.341 17.000,312.140 16.925,312.083 16.833 C 312.027 16.742,311.577 16.667,311.083 16.667 C 310.590 16.667,310.140 16.592,310.083 16.500 C 310.027 16.408,309.797 16.333,309.573 16.333 C 309.350 16.333,309.167 16.408,309.167 16.500 M227.667 17.298 C 227.667 17.634,228.219 19.275,228.389 19.445 C 228.450 19.506,228.500 19.693,228.500 19.861 C 228.500 20.029,228.575 20.167,228.667 20.167 C 228.758 20.167,228.833 20.314,228.833 20.494 C 228.833 20.675,228.956 21.106,229.106 21.453 C 229.483 22.322,229.611 22.652,229.856 23.375 C 229.972 23.719,230.127 24.000,230.200 24.000 C 230.273 24.000,230.333 24.129,230.333 24.288 C 230.333 24.568,231.051 26.628,231.350 27.206 C 231.433 27.365,231.500 27.609,231.500 27.748 C 231.500 27.886,231.575 28.000,231.667 28.000 C 231.758 28.000,231.833 28.146,231.833 28.323 C 231.833 28.501,231.900 28.688,231.981 28.738 C 232.125 28.827,232.418 29.958,232.361 30.208 C 232.346 30.277,232.408 30.333,232.500 30.333 C 232.592 30.333,232.667 30.479,232.667 30.657 C 232.667 30.835,232.742 31.027,232.833 31.083 C 232.925 31.140,233.000 31.332,233.000 31.510 C 233.000 31.688,233.075 31.833,233.167 31.833 C 233.258 31.833,233.333 32.009,233.333 32.224 C 233.333 32.938,233.808 33.167,235.291 33.167 C 237.069 33.167,237.079 33.161,237.588 31.777 C 237.829 31.121,238.096 30.415,238.180 30.208 C 238.264 30.002,238.401 29.665,238.483 29.458 C 238.565 29.252,238.744 28.821,238.880 28.500 C 239.017 28.179,239.227 27.617,239.348 27.250 C 239.469 26.883,239.628 26.512,239.701 26.425 C 239.774 26.338,239.833 26.099,239.833 25.893 C 239.833 25.688,239.899 25.479,239.980 25.429 C 240.061 25.379,240.251 24.944,240.403 24.461 C 240.676 23.594,240.899 23.025,241.186 22.461 C 241.267 22.301,241.333 22.058,241.333 21.919 C 241.333 21.780,241.390 21.667,241.458 21.667 C 241.527 21.667,241.730 21.198,241.909 20.625 C 242.088 20.052,242.285 19.471,242.348 19.333 C 242.410 19.196,242.554 18.858,242.667 18.583 C 242.780 18.308,242.938 17.953,243.019 17.794 C 243.387 17.071,243.254 17.000,241.542 17.000 L 239.917 17.000 239.590 18.083 C 239.410 18.679,239.204 19.167,239.131 19.167 C 239.059 19.167,239.000 19.318,239.000 19.502 C 239.000 19.687,238.934 19.968,238.853 20.127 C 238.380 21.057,237.839 22.606,237.836 23.042 C 237.834 23.202,237.758 23.333,237.667 23.333 C 237.575 23.333,237.500 23.521,237.500 23.750 C 237.500 23.979,237.425 24.167,237.333 24.167 C 237.242 24.167,237.167 24.312,237.167 24.490 C 237.167 24.668,237.100 24.855,237.019 24.905 C 236.938 24.955,236.818 25.278,236.754 25.623 C 236.690 25.968,236.584 26.325,236.520 26.417 C 236.456 26.508,236.307 26.883,236.190 27.250 C 236.074 27.617,235.915 28.067,235.837 28.250 C 235.760 28.433,235.651 28.726,235.594 28.901 C 235.477 29.260,235.017 28.838,235.005 28.361 C 234.997 28.031,234.153 25.608,233.981 25.425 C 233.900 25.338,233.833 25.094,233.833 24.883 C 233.833 24.673,233.758 24.500,233.667 24.500 C 233.575 24.500,233.500 24.408,233.500 24.295 C 233.500 24.007,232.534 21.387,232.147 20.627 C 232.066 20.468,232.000 20.187,232.000 20.002 C 232.000 19.818,231.930 19.667,231.844 19.667 C 231.757 19.667,231.636 19.329,231.575 18.917 C 231.513 18.504,231.396 18.167,231.314 18.167 C 231.233 18.167,231.164 18.035,231.161 17.875 C 231.146 17.005,227.667 16.431,227.667 17.298 M244.373 25.042 L 244.417 33.083 245.474 33.139 C 246.055 33.170,246.712 33.150,246.932 33.094 L 247.333 32.994 247.333 24.997 L 247.333 17.000 245.832 17.000 L 244.330 17.000 244.373 25.042 M249.833 24.982 C 249.833 32.107,249.862 32.975,250.097 33.066 C 251.381 33.558,260.000 32.889,260.000 32.297 C 260.000 32.225,260.112 32.167,260.250 32.167 C 260.387 32.167,260.500 32.092,260.500 32.000 C 260.500 31.908,260.612 31.833,260.749 31.833 C 261.206 31.833,262.902 30.235,263.335 29.397 C 263.471 29.133,263.625 28.879,263.677 28.833 C 264.608 28.008,264.608 21.992,263.677 21.167 C 263.625 21.121,263.472 20.870,263.338 20.608 C 262.647 19.270,260.088 17.333,259.011 17.333 C 258.832 17.333,258.640 17.258,258.583 17.167 C 258.519 17.062,256.859 17.000,254.157 17.000 L 249.833 17.000 249.833 24.982 M266.000 24.981 L 266.000 32.961 266.375 33.062 C 266.958 33.218,277.055 33.179,277.307 33.020 C 277.544 32.869,277.641 30.697,277.426 30.349 C 277.350 30.225,276.012 30.167,273.240 30.167 L 269.167 30.167 269.167 28.170 L 269.167 26.174 272.292 26.129 L 275.417 26.083 275.417 24.667 L 275.417 23.250 272.292 23.205 L 269.167 23.159 269.167 21.413 L 269.167 19.667 273.070 19.667 C 277.839 19.667,277.500 19.776,277.500 18.232 L 277.500 17.000 271.750 17.000 L 266.000 17.000 266.000 24.981 M319.000 24.997 L 319.000 32.994 319.375 33.085 C 319.581 33.135,322.112 33.156,325.000 33.130 L 330.250 33.083 330.250 31.667 L 330.250 30.250 326.125 30.205 L 322.000 30.161 322.000 28.164 L 322.000 26.167 325.050 26.167 C 328.601 26.167,328.500 26.211,328.500 24.639 C 328.500 23.155,328.528 23.167,324.928 23.167 L 322.000 23.167 322.000 21.420 L 322.000 19.672 326.125 19.628 L 330.250 19.583 330.299 18.292 L 330.347 17.000 324.674 17.000 L 319.000 17.000 319.000 24.997 M332.278 17.111 C 332.006 17.382,332.155 32.960,332.430 33.066 C 332.769 33.195,334.469 33.193,334.958 33.062 L 335.333 32.961 335.333 27.523 L 335.333 22.084 335.921 22.917 C 336.244 23.375,336.619 23.882,336.754 24.044 C 336.889 24.205,337.000 24.411,337.000 24.502 C 337.000 24.593,337.070 24.667,337.155 24.667 C 337.241 24.667,337.354 24.803,337.407 24.971 C 337.460 25.138,337.638 25.419,337.802 25.596 C 337.966 25.772,338.412 26.377,338.794 26.941 C 339.176 27.504,339.603 28.080,339.744 28.220 C 339.885 28.361,340.000 28.557,340.000 28.655 C 340.000 28.753,340.063 28.833,340.140 28.833 C 340.217 28.833,340.367 29.002,340.473 29.208 C 340.580 29.415,341.005 30.033,341.419 30.583 C 341.834 31.133,342.223 31.696,342.285 31.833 C 342.347 31.971,342.494 32.181,342.612 32.300 C 342.730 32.419,342.895 32.640,342.980 32.791 C 343.148 33.092,344.968 33.294,345.746 33.099 L 346.167 32.994 346.167 24.990 L 346.167 16.987 344.708 17.035 L 343.250 17.083 343.206 22.292 C 343.161 27.647,343.130 27.881,342.586 26.958 C 342.410 26.660,342.208 26.342,342.136 26.250 C 342.064 26.158,341.816 25.848,341.586 25.559 C 341.355 25.271,341.166 24.971,341.166 24.893 C 341.165 24.814,340.940 24.510,340.666 24.217 C 340.391 23.924,340.167 23.638,340.167 23.581 C 340.167 23.451,339.339 22.333,338.996 22.000 C 338.855 21.863,338.496 21.366,338.200 20.898 C 337.903 20.429,337.475 19.829,337.247 19.564 C 337.020 19.300,336.834 19.030,336.834 18.966 C 336.833 18.901,336.646 18.661,336.417 18.432 C 336.188 18.203,336.000 17.950,336.000 17.870 C 336.000 17.197,332.837 16.552,332.278 17.111 M347.833 18.333 L 347.833 19.667 350.498 19.667 L 353.163 19.667 353.206 26.375 L 353.250 33.083 354.417 33.126 C 356.157 33.190,356.016 33.798,356.004 26.277 L 355.993 19.667 358.580 19.667 L 361.167 19.667 361.167 18.333 L 361.167 17.000 354.500 17.000 L 347.833 17.000 347.833 18.333 M362.833 24.982 C 362.833 32.107,362.862 32.975,363.097 33.066 C 363.442 33.198,373.469 33.193,373.965 33.060 C 374.328 32.963,374.344 32.893,374.298 31.604 L 374.250 30.250 370.125 30.205 L 366.000 30.161 366.000 28.164 L 366.000 26.167 369.064 26.167 C 372.586 26.167,372.327 26.307,372.331 24.393 C 372.334 23.108,372.497 23.167,368.903 23.167 L 366.000 23.167 366.000 21.417 L 366.000 19.667 369.903 19.667 C 374.672 19.667,374.333 19.776,374.333 18.232 L 374.333 17.000 368.583 17.000 L 362.833 17.000 362.833 24.982 M376.207 25.042 L 376.250 33.083 377.307 33.139 C 377.889 33.170,378.545 33.150,378.766 33.094 L 379.167 32.994 379.167 30.163 L 379.167 27.333 380.375 27.335 L 381.583 27.337 382.208 28.347 C 382.552 28.902,382.833 29.426,382.833 29.512 C 382.833 29.597,382.908 29.667,383.000 29.667 C 383.092 29.667,383.167 29.817,383.167 30.000 C 383.167 30.183,383.242 30.333,383.333 30.333 C 383.425 30.333,383.500 30.440,383.500 30.571 C 383.500 30.702,383.594 30.912,383.708 31.036 C 383.919 31.265,384.217 31.748,384.602 32.483 C 384.717 32.703,384.910 32.946,385.031 33.023 C 385.302 33.194,387.844 33.208,388.110 33.039 C 388.326 32.901,388.214 32.000,387.981 32.000 C 387.900 32.000,387.833 31.887,387.833 31.750 C 387.833 31.613,387.758 31.500,387.667 31.500 C 387.575 31.500,387.500 31.421,387.500 31.325 C 387.500 31.229,387.238 30.740,386.917 30.239 C 386.596 29.737,386.333 29.253,386.333 29.163 C 386.333 29.074,386.277 29.000,386.208 28.999 C 386.140 28.999,385.861 28.587,385.589 28.083 C 385.317 27.579,385.036 27.167,384.964 27.167 C 384.585 27.167,384.917 26.643,385.458 26.386 C 386.272 26.001,387.500 24.769,387.500 24.338 C 387.500 24.152,387.575 24.000,387.667 24.000 C 387.768 24.000,387.833 23.278,387.833 22.167 C 387.833 21.056,387.768 20.333,387.667 20.333 C 387.575 20.333,387.500 20.139,387.500 19.902 C 387.500 19.597,387.218 19.196,386.535 18.527 C 385.068 17.092,384.675 17.000,380.018 17.000 L 376.163 17.000 376.207 25.042 M73.099 21.240 C 72.598 22.297,71.391 23.000,70.078 23.000 C 69.577 23.000,69.167 22.925,69.167 22.833 C 69.167 22.742,69.040 22.667,68.886 22.667 C 68.040 22.667,67.450 20.906,68.047 20.164 C 68.389 19.740,69.133 19.333,69.568 19.333 C 69.795 19.333,70.027 19.258,70.083 19.167 C 70.140 19.075,70.579 19.000,71.060 19.000 C 71.540 19.000,72.005 18.931,72.092 18.846 C 72.179 18.762,72.475 18.668,72.750 18.638 L 73.250 18.583 73.300 19.648 C 73.332 20.343,73.263 20.895,73.099 21.240 M257.500 19.876 C 259.560 20.484,260.631 21.552,261.310 23.678 C 261.544 24.413,261.560 26.110,261.333 26.250 C 261.242 26.307,261.167 26.484,261.167 26.643 C 261.167 27.008,260.792 27.830,260.625 27.832 C 260.556 27.833,260.498 27.927,260.494 28.042 C 260.486 28.361,259.973 28.906,259.417 29.186 C 259.142 29.325,258.729 29.539,258.500 29.662 C 258.271 29.785,257.953 29.949,257.794 30.026 C 257.635 30.103,256.416 30.167,255.086 30.167 L 252.667 30.167 252.667 24.898 L 252.667 19.629 254.958 19.715 C 256.219 19.763,257.362 19.835,257.500 19.876 M383.247 19.926 C 384.799 20.575,385.447 22.896,384.333 23.816 C 384.104 24.006,383.808 24.253,383.676 24.367 C 383.522 24.499,382.667 24.597,381.301 24.640 L 379.167 24.706 379.167 22.186 L 379.167 19.667 380.896 19.667 C 382.085 19.667,382.820 19.748,383.247 19.926 M285.528 21.458 C 285.583 21.582,286.368 22.045,287.500 22.620 C 287.821 22.783,288.121 22.954,288.167 23.000 C 288.313 23.146,289.226 23.668,290.000 24.048 C 290.412 24.251,290.787 24.460,290.833 24.512 C 290.879 24.565,291.061 24.661,291.238 24.727 C 291.565 24.848,290.640 25.667,290.176 25.667 C 290.079 25.667,290.000 25.742,290.000 25.833 C 290.000 25.925,289.859 26.000,289.687 26.000 C 289.515 26.000,289.281 26.113,289.167 26.250 C 289.053 26.387,288.856 26.500,288.730 26.500 C 288.603 26.500,288.500 26.557,288.500 26.626 C 288.500 26.695,288.256 26.858,287.958 26.988 C 287.660 27.117,287.379 27.267,287.333 27.320 C 287.287 27.373,286.950 27.566,286.583 27.748 C 286.217 27.931,285.879 28.118,285.833 28.165 C 285.787 28.212,285.581 28.344,285.375 28.460 L 285.000 28.669 285.000 25.001 C 285.000 21.948,285.040 21.333,285.236 21.333 C 285.366 21.333,285.497 21.390,285.528 21.458 M83.417 30.844 C 83.142 31.019,82.804 31.215,82.667 31.278 C 82.529 31.341,82.379 31.435,82.333 31.488 C 82.287 31.540,81.875 31.780,81.417 32.020 L 80.583 32.457 80.540 41.343 C 80.506 48.341,80.542 50.257,80.707 50.362 C 80.951 50.517,84.513 50.548,84.903 50.399 C 85.139 50.308,85.167 49.272,85.167 40.399 L 85.167 30.500 84.542 30.512 C 84.198 30.519,83.692 30.668,83.417 30.844 M166.748 31.046 C 166.291 31.347,165.631 31.741,165.281 31.921 C 164.091 32.537,164.163 32.007,164.158 40.144 C 164.153 47.301,164.211 48.667,164.519 48.667 C 164.600 48.667,164.667 48.750,164.667 48.853 C 164.667 49.806,166.645 50.528,169.083 50.464 L 170.917 50.417 170.966 48.917 C 171.033 46.861,170.970 46.667,170.235 46.667 C 169.115 46.667,169.090 46.572,169.030 42.194 C 168.962 37.152,168.855 37.500,170.470 37.500 C 172.095 37.500,172.167 37.429,172.167 35.826 C 172.167 34.148,172.013 34.000,170.268 34.000 L 168.979 34.000 168.999 32.625 C 169.033 30.261,168.505 29.891,166.748 31.046 M193.000 30.917 C 192.679 31.135,192.323 31.318,192.208 31.324 C 192.094 31.329,191.999 31.390,191.998 31.458 C 191.997 31.527,191.678 31.733,191.290 31.915 C 190.901 32.098,190.490 32.337,190.375 32.445 C 190.041 32.762,190.075 49.932,190.410 50.267 C 190.602 50.460,191.081 50.501,192.702 50.464 L 194.750 50.417 194.793 40.458 L 194.836 30.500 194.210 30.510 C 193.837 30.515,193.347 30.680,193.000 30.917 M69.083 33.899 C 68.717 34.009,68.126 34.226,67.771 34.382 C 67.416 34.539,67.092 34.667,67.051 34.667 C 67.010 34.667,66.872 34.760,66.744 34.875 C 66.206 35.358,66.006 35.500,65.867 35.500 C 65.671 35.500,64.667 36.612,64.667 36.829 C 64.667 36.923,64.606 37.000,64.532 37.000 C 64.205 37.000,63.294 39.081,63.209 40.024 C 63.160 40.561,63.056 41.000,62.977 41.000 C 62.788 41.000,62.790 43.620,62.978 43.737 C 63.058 43.786,63.160 44.201,63.204 44.659 C 63.600 48.790,68.480 51.658,73.333 50.614 C 74.495 50.364,75.833 49.836,75.833 49.627 C 75.833 49.557,75.927 49.500,76.042 49.500 C 76.305 49.500,78.000 47.663,78.000 47.378 C 78.000 47.262,78.075 47.167,78.167 47.167 C 78.258 47.167,78.333 47.021,78.333 46.843 C 78.333 46.665,78.408 46.473,78.500 46.417 C 78.592 46.360,78.667 46.056,78.667 45.740 L 78.667 45.167 76.583 45.167 C 75.438 45.167,74.500 45.223,74.500 45.292 C 74.499 45.505,73.722 46.333,73.522 46.333 C 73.418 46.333,73.333 46.396,73.333 46.474 C 73.333 46.692,72.127 47.000,71.270 47.000 C 70.448 47.000,69.167 46.671,69.167 46.459 C 69.167 46.390,69.073 46.333,68.958 46.332 C 68.726 46.331,68.167 45.438,68.167 45.070 C 68.167 44.940,68.092 44.833,68.000 44.833 C 67.908 44.833,67.833 44.534,67.833 44.169 L 67.833 43.504 73.458 43.461 L 79.083 43.417 79.168 42.667 C 79.582 38.994,76.780 34.726,73.417 33.909 C 72.545 33.698,69.779 33.691,69.083 33.899 M92.974 33.853 C 92.851 33.931,92.548 33.996,92.302 33.997 C 92.055 33.999,91.807 34.075,91.750 34.167 C 91.693 34.258,91.501 34.333,91.323 34.333 C 91.146 34.333,91.000 34.408,91.000 34.500 C 91.000 34.592,90.915 34.667,90.812 34.667 C 90.573 34.667,88.980 35.801,88.725 36.152 C 88.620 36.298,88.339 36.642,88.100 36.917 C 87.862 37.192,87.667 37.510,87.667 37.625 C 87.667 37.740,87.609 37.833,87.539 37.833 C 87.377 37.833,86.833 39.350,86.833 39.804 C 86.833 39.993,86.758 40.193,86.667 40.250 C 86.462 40.376,86.440 44.333,86.643 44.333 C 86.722 44.333,86.830 44.697,86.883 45.141 C 86.972 45.897,87.842 47.678,88.185 47.806 C 88.266 47.836,88.333 47.964,88.333 48.090 C 88.333 48.215,88.690 48.583,89.125 48.907 C 89.560 49.230,89.992 49.555,90.083 49.628 C 91.304 50.601,94.366 51.058,96.833 50.635 C 97.818 50.466,99.333 49.861,99.333 49.637 C 99.333 49.562,99.434 49.500,99.558 49.500 C 99.843 49.500,101.333 48.000,101.333 47.714 C 101.333 47.596,101.390 47.499,101.458 47.499 C 101.608 47.497,102.000 46.690,102.000 46.383 C 102.000 46.264,102.075 46.167,102.167 46.167 C 102.399 46.167,102.376 45.609,102.133 45.367 C 102.002 45.235,101.299 45.167,100.080 45.167 L 98.226 45.167 97.588 45.901 C 96.743 46.873,95.442 47.185,93.722 46.828 C 92.371 46.547,91.500 45.494,91.500 44.141 L 91.500 43.500 97.083 43.500 L 102.667 43.500 102.667 41.760 C 102.667 40.780,102.594 39.975,102.500 39.917 C 102.408 39.860,102.333 39.667,102.333 39.488 C 102.333 39.309,102.267 39.032,102.186 38.873 C 102.105 38.714,101.823 38.141,101.561 37.600 C 100.723 35.875,98.852 34.428,96.703 33.844 C 95.905 33.627,93.320 33.633,92.974 33.853 M111.750 33.784 C 111.047 33.950,109.699 34.702,109.112 35.255 L 108.500 35.833 108.500 35.103 C 108.500 34.122,108.080 33.947,105.912 34.025 C 103.637 34.108,103.833 33.334,103.833 42.204 C 103.833 51.348,103.571 50.500,106.403 50.500 C 109.074 50.500,108.833 51.045,108.833 45.000 C 108.833 40.059,108.928 39.006,109.375 39.001 C 109.444 39.001,109.500 38.920,109.500 38.821 C 109.500 38.597,109.921 38.167,110.141 38.167 C 110.231 38.167,110.335 38.079,110.371 37.971 C 110.411 37.849,110.852 37.770,111.538 37.763 C 113.687 37.738,113.813 38.135,113.821 44.970 C 113.828 51.039,113.590 50.500,116.261 50.500 C 119.055 50.500,118.833 50.993,118.833 44.791 C 118.833 39.394,118.874 39.111,119.775 38.210 C 120.675 37.310,123.333 37.735,123.333 38.779 C 123.333 38.901,123.408 39.000,123.500 39.000 C 123.608 39.000,123.667 40.941,123.667 44.491 C 123.667 51.076,123.415 50.500,126.299 50.500 C 127.716 50.500,128.250 50.440,128.429 50.262 C 128.721 49.970,128.789 38.429,128.500 38.250 C 128.408 38.193,128.333 37.924,128.333 37.651 C 128.333 36.128,126.604 34.325,124.750 33.915 C 123.697 33.683,121.639 33.637,121.113 33.835 C 120.001 34.253,119.176 34.723,118.598 35.268 C 118.012 35.821,117.667 35.977,117.667 35.689 C 117.667 35.213,116.297 34.318,114.850 33.850 C 114.293 33.670,112.404 33.630,111.750 33.784 M135.875 33.899 C 135.485 33.990,135.167 34.125,135.167 34.199 C 135.167 34.273,135.017 34.333,134.833 34.333 C 134.650 34.333,134.500 34.408,134.500 34.500 C 134.500 34.592,134.385 34.667,134.244 34.667 C 133.652 34.667,131.167 36.884,131.167 37.413 C 131.167 37.552,131.092 37.667,131.000 37.667 C 130.908 37.667,130.833 37.779,130.833 37.917 C 130.833 38.054,130.758 38.167,130.667 38.167 C 130.575 38.167,130.500 38.304,130.500 38.472 C 130.500 38.640,130.446 38.831,130.381 38.897 C 129.733 39.545,129.714 45.031,130.357 45.742 C 130.436 45.829,130.500 46.035,130.500 46.200 C 130.500 46.365,130.557 46.500,130.627 46.500 C 130.697 46.500,130.877 46.781,131.026 47.125 C 131.369 47.912,132.902 49.500,133.321 49.500 C 133.404 49.500,133.497 49.556,133.528 49.625 C 134.020 50.733,139.402 51.191,141.500 50.304 C 142.942 49.694,144.500 48.534,144.500 48.070 C 144.500 47.955,144.556 47.836,144.625 47.806 C 145.022 47.629,145.583 46.103,145.518 45.375 C 145.491 45.062,141.333 45.077,141.333 45.390 C 141.333 45.856,140.182 46.671,139.209 46.894 C 137.351 47.320,135.000 46.226,135.000 44.936 C 135.000 44.733,134.918 44.484,134.817 44.383 C 134.716 44.283,134.684 44.043,134.745 43.850 C 134.855 43.504,134.913 43.500,140.439 43.500 L 146.022 43.500 145.957 41.875 C 145.922 40.981,145.849 40.100,145.795 39.917 C 145.742 39.733,145.641 39.360,145.571 39.087 C 145.313 38.075,143.656 35.500,143.264 35.500 C 143.220 35.500,142.982 35.313,142.734 35.083 C 142.487 34.854,142.183 34.667,142.059 34.667 C 141.935 34.667,141.833 34.592,141.833 34.500 C 141.833 34.408,141.696 34.333,141.528 34.333 C 141.360 34.333,141.169 34.280,141.103 34.214 C 140.648 33.760,137.331 33.560,135.875 33.899 M154.716 33.894 C 154.423 34.004,154.129 34.149,154.064 34.214 C 153.998 34.280,153.807 34.333,153.639 34.333 C 153.471 34.333,153.333 34.408,153.333 34.500 C 153.333 34.592,153.235 34.667,153.115 34.667 C 152.995 34.667,152.657 34.901,152.365 35.186 L 151.833 35.706 151.833 35.122 C 151.833 34.224,151.355 34.000,149.436 34.000 C 148.570 34.000,147.742 34.046,147.597 34.101 C 147.195 34.255,147.195 50.245,147.597 50.399 C 148.040 50.569,151.334 50.511,151.678 50.327 C 151.985 50.163,152.000 49.930,152.000 45.325 C 152.000 42.629,152.069 40.368,152.157 40.206 C 152.243 40.047,152.358 39.703,152.414 39.443 C 152.825 37.502,157.167 36.972,157.167 38.862 C 157.167 39.030,157.242 39.167,157.333 39.167 C 157.425 39.167,157.500 39.537,157.500 39.990 C 157.500 40.443,157.575 40.860,157.667 40.917 C 157.771 40.981,157.833 42.746,157.833 45.659 C 157.833 49.735,157.865 50.310,158.097 50.399 C 158.627 50.602,161.906 50.498,162.208 50.268 C 162.549 50.010,162.671 38.333,162.333 38.333 C 162.242 38.333,162.167 38.030,162.167 37.660 C 162.167 36.506,161.117 34.968,159.989 34.469 C 159.720 34.349,159.500 34.203,159.500 34.144 C 159.500 33.808,155.501 33.598,154.716 33.894 M178.417 33.875 C 178.050 33.962,177.620 34.100,177.461 34.183 C 177.301 34.266,177.066 34.333,176.938 34.333 C 176.513 34.333,174.886 35.346,174.621 35.775 C 174.551 35.890,174.386 36.090,174.255 36.221 C 173.383 37.093,173.015 38.971,173.625 39.435 C 173.995 39.716,176.976 39.746,177.571 39.475 C 177.834 39.356,178.097 39.008,178.272 38.549 C 178.923 36.844,182.619 36.679,183.099 38.333 C 183.326 39.118,182.952 40.000,182.391 40.000 C 182.268 40.000,182.167 40.075,182.167 40.167 C 182.167 40.258,181.919 40.333,181.617 40.333 C 181.314 40.333,180.995 40.401,180.908 40.484 C 180.821 40.566,180.188 40.670,179.500 40.714 C 178.813 40.758,178.088 40.834,177.890 40.884 C 177.692 40.934,177.185 41.027,176.763 41.090 C 176.341 41.153,175.955 41.271,175.905 41.353 C 175.855 41.434,175.687 41.500,175.532 41.500 C 175.377 41.500,175.045 41.669,174.795 41.875 C 174.544 42.081,174.150 42.385,173.919 42.550 C 171.885 44.001,172.578 48.759,175.023 50.133 C 176.358 50.883,181.163 51.013,181.597 50.311 C 181.646 50.232,181.813 50.167,181.968 50.166 C 182.123 50.166,182.468 49.979,182.734 49.750 C 183.311 49.254,183.500 49.227,183.500 49.641 C 183.500 50.434,187.439 50.994,188.133 50.300 C 188.375 50.059,188.402 48.229,188.167 48.083 C 188.061 48.018,188.000 45.974,188.000 42.500 C 188.000 39.026,187.939 36.982,187.833 36.917 C 187.742 36.860,187.667 36.702,187.667 36.566 C 187.667 35.715,185.673 34.297,184.000 33.958 C 182.938 33.743,179.211 33.688,178.417 33.875 M72.261 37.685 C 72.312 37.767,72.471 37.833,72.615 37.833 C 72.953 37.833,73.645 38.628,73.777 39.167 C 73.833 39.396,73.950 39.674,74.037 39.784 C 74.405 40.252,73.940 40.333,70.907 40.333 C 67.564 40.333,67.603 40.346,68.076 39.398 C 68.402 38.746,68.960 38.192,69.759 37.729 C 70.143 37.506,72.130 37.472,72.261 37.685 M95.762 37.670 C 96.422 37.919,97.143 38.629,97.430 39.312 C 97.874 40.367,97.968 40.333,94.583 40.333 L 91.500 40.333 91.500 39.833 C 91.500 39.558,91.575 39.333,91.667 39.333 C 91.758 39.333,91.836 39.240,91.839 39.125 C 91.867 38.074,94.372 37.145,95.762 37.670 M139.183 37.697 C 139.858 37.932,139.980 38.044,140.557 38.959 C 141.423 40.331,141.418 40.334,138.042 40.331 C 136.415 40.329,134.985 40.266,134.864 40.189 C 134.643 40.049,135.348 38.496,135.695 38.360 C 135.774 38.329,135.933 38.210,136.048 38.095 C 136.598 37.545,138.173 37.345,139.183 37.697 M334.206 38.458 C 333.575 39.031,333.333 39.501,333.333 40.156 C 333.333 40.590,333.271 40.667,332.917 40.667 C 332.583 40.667,332.500 40.750,332.500 41.083 C 332.500 41.417,332.583 41.500,332.917 41.500 L 333.333 41.500 333.333 44.167 L 333.333 46.833 333.917 46.833 L 334.500 46.833 334.500 44.175 L 334.500 41.517 335.375 41.467 C 336.122 41.424,336.250 41.368,336.250 41.083 C 336.250 40.799,336.122 40.743,335.375 40.700 C 334.433 40.645,334.345 40.523,334.693 39.758 C 334.903 39.298,334.927 39.289,335.917 39.266 C 336.541 39.251,336.583 39.218,336.583 38.758 C 336.583 37.905,335.032 37.710,334.206 38.458 M282.286 38.270 C 282.220 38.335,282.167 39.026,282.167 39.804 C 282.167 41.129,282.148 41.204,281.875 40.984 C 281.110 40.370,279.500 40.042,279.500 40.500 C 279.500 40.592,279.369 40.667,279.208 40.667 C 278.819 40.667,278.135 41.299,277.854 41.917 C 277.730 42.192,277.562 42.547,277.481 42.706 C 277.280 43.100,277.294 44.456,277.500 44.583 C 277.592 44.640,277.667 44.832,277.667 45.010 C 277.667 45.188,277.742 45.333,277.833 45.333 C 277.925 45.333,278.000 45.433,278.000 45.554 C 278.000 45.792,278.520 46.288,279.123 46.625 C 279.547 46.862,281.500 46.911,281.500 46.685 C 281.500 46.381,282.365 46.310,282.673 46.589 C 283.343 47.195,284.103 46.578,283.682 45.770 C 283.569 45.553,283.483 44.038,283.458 41.833 L 283.417 38.250 282.911 38.200 C 282.632 38.173,282.351 38.204,282.286 38.270 M290.833 42.489 L 290.833 46.833 291.333 46.833 C 291.676 46.833,291.833 46.751,291.833 46.572 C 291.833 46.295,292.526 46.395,292.639 46.689 C 292.784 47.066,294.855 46.839,295.512 46.375 C 297.022 45.308,297.275 42.273,295.944 41.193 C 295.085 40.496,293.333 40.031,293.333 40.500 C 293.333 40.592,293.200 40.667,293.037 40.667 C 292.874 40.667,292.577 40.781,292.377 40.922 L 292.013 41.176 291.965 39.713 L 291.917 38.250 291.375 38.198 L 290.833 38.146 290.833 42.489 M313.583 38.392 C 312.786 38.635,312.277 38.892,311.883 39.250 C 311.681 39.433,311.407 39.674,311.273 39.785 C 309.581 41.183,310.778 46.500,312.784 46.500 C 312.994 46.500,313.167 46.575,313.167 46.667 C 313.167 46.762,313.667 46.833,314.333 46.833 C 315.000 46.833,315.500 46.762,315.500 46.667 C 315.500 46.575,315.684 46.500,315.910 46.500 C 316.422 46.500,317.667 45.350,317.667 44.877 C 317.667 44.324,316.886 44.225,316.352 44.711 C 314.319 46.557,311.987 45.592,311.710 42.790 C 311.568 41.342,312.620 39.668,313.675 39.667 C 313.909 39.667,314.182 39.585,314.281 39.485 C 314.412 39.355,314.494 39.355,314.574 39.485 C 314.636 39.585,314.867 39.667,315.088 39.667 C 315.327 39.667,315.733 39.911,316.093 40.270 C 316.678 40.856,317.500 40.872,317.500 40.297 C 317.500 40.016,316.990 39.167,316.822 39.167 C 316.729 39.167,316.502 39.026,316.318 38.855 C 315.897 38.462,314.261 38.185,313.583 38.392 M364.325 38.402 C 362.100 38.838,361.000 40.196,361.000 42.506 C 361.000 44.515,362.193 46.500,363.402 46.500 C 363.547 46.500,363.667 46.575,363.667 46.667 C 363.667 46.762,364.167 46.833,364.833 46.833 C 365.500 46.833,366.000 46.762,366.000 46.667 C 366.000 46.575,366.169 46.499,366.375 46.497 C 367.309 46.491,368.424 44.945,367.822 44.491 C 367.367 44.148,367.122 44.211,366.837 44.744 C 366.596 45.193,365.497 45.667,364.697 45.667 C 363.778 45.667,362.333 44.483,362.333 43.730 C 362.333 43.523,362.270 43.314,362.193 43.266 C 362.008 43.152,362.292 41.099,362.503 41.028 C 362.593 40.997,362.667 40.893,362.667 40.797 C 362.667 40.512,363.478 39.845,363.965 39.728 C 364.214 39.669,364.504 39.552,364.610 39.469 C 364.729 39.376,364.845 39.384,364.912 39.492 C 364.971 39.588,365.234 39.667,365.496 39.667 C 365.814 39.667,366.170 39.860,366.572 40.250 C 367.236 40.895,367.411 40.946,367.762 40.595 C 368.161 40.196,367.365 38.833,366.733 38.833 C 366.605 38.833,366.500 38.758,366.500 38.667 C 366.500 38.575,366.290 38.500,366.033 38.500 C 365.777 38.500,365.495 38.437,365.408 38.361 C 365.321 38.284,364.834 38.303,364.325 38.402 M370.757 38.391 C 370.528 38.559,370.500 39.107,370.539 42.667 L 370.583 46.750 371.187 46.800 C 371.963 46.865,371.995 46.748,371.998 43.760 C 372.000 41.204,372.133 41.061,372.902 42.792 C 373.076 43.181,373.281 43.500,373.359 43.500 C 373.436 43.500,373.500 43.650,373.500 43.833 C 373.500 44.017,373.575 44.167,373.667 44.167 C 373.758 44.167,373.833 44.279,373.833 44.417 C 373.833 44.554,373.900 44.667,373.981 44.667 C 374.062 44.667,374.168 44.822,374.218 45.012 C 374.378 45.625,375.172 45.374,375.576 44.583 C 375.764 44.217,375.973 43.892,376.042 43.861 C 376.110 43.831,376.167 43.733,376.167 43.644 C 376.167 43.555,376.354 43.206,376.583 42.869 C 376.813 42.532,377.000 42.162,377.000 42.047 C 377.000 41.931,377.131 41.684,377.292 41.496 C 377.572 41.168,377.587 41.264,377.667 43.952 L 377.750 46.750 378.292 46.802 L 378.833 46.854 378.833 42.612 C 378.833 38.832,378.803 38.358,378.560 38.264 C 378.136 38.102,377.580 38.568,377.043 39.535 C 376.774 40.020,376.268 40.904,375.919 41.500 C 375.570 42.096,375.175 42.795,375.041 43.054 L 374.797 43.524 374.427 42.970 C 374.223 42.666,373.941 42.192,373.800 41.917 C 373.157 40.659,371.794 38.332,371.694 38.321 C 371.633 38.314,371.456 38.283,371.301 38.253 C 371.146 38.224,370.901 38.285,370.757 38.391 M383.942 38.372 C 383.836 38.440,383.581 38.496,383.375 38.497 C 383.169 38.499,383.000 38.562,383.000 38.639 C 383.000 38.715,382.823 38.872,382.607 38.987 C 381.319 39.677,381.553 42.667,382.895 42.667 C 383.044 42.667,383.167 42.742,383.167 42.833 C 383.167 42.925,383.387 43.000,383.657 43.000 C 383.926 43.000,384.187 43.065,384.236 43.145 C 384.286 43.224,384.716 43.341,385.194 43.405 C 386.600 43.591,387.085 44.462,386.226 45.258 C 385.490 45.940,383.414 45.744,382.489 44.906 C 382.011 44.474,381.369 44.998,381.579 45.648 C 381.684 45.973,382.571 46.500,383.014 46.500 C 383.189 46.500,383.333 46.575,383.333 46.667 C 383.333 46.765,383.913 46.833,384.740 46.833 C 385.514 46.833,386.193 46.758,386.250 46.667 C 386.307 46.575,386.495 46.500,386.668 46.500 C 387.799 46.500,388.281 43.885,387.316 42.984 C 387.031 42.718,386.660 42.500,386.492 42.500 C 386.324 42.500,386.140 42.425,386.083 42.333 C 386.027 42.242,385.727 42.167,385.417 42.167 C 385.107 42.167,384.807 42.092,384.750 42.000 C 384.693 41.908,384.507 41.833,384.337 41.833 C 383.676 41.833,383.002 41.279,383.001 40.734 C 383.000 40.224,383.420 39.667,383.807 39.667 C 383.916 39.667,384.154 39.574,384.336 39.460 C 384.599 39.295,384.734 39.295,384.998 39.460 C 385.180 39.574,385.517 39.667,385.748 39.667 C 385.978 39.667,386.167 39.723,386.168 39.792 C 386.171 40.128,386.985 40.292,387.242 40.009 C 388.053 39.113,385.088 37.642,383.942 38.372 M338.619 38.603 C 338.554 38.669,338.500 39.160,338.500 39.694 C 338.500 40.556,338.462 40.667,338.167 40.667 C 337.922 40.667,337.833 40.778,337.833 41.083 C 337.833 41.389,337.922 41.500,338.167 41.500 C 338.484 41.500,338.500 41.611,338.500 43.803 C 338.500 46.054,338.509 46.115,338.918 46.470 C 339.359 46.853,341.000 47.008,341.000 46.667 C 341.000 46.575,341.112 46.500,341.250 46.500 C 341.561 46.500,341.575 45.999,341.275 45.590 C 341.120 45.377,341.014 45.342,340.932 45.475 C 340.867 45.580,340.593 45.667,340.323 45.667 L 339.833 45.667 339.833 43.593 L 339.833 41.520 340.458 41.468 C 341.430 41.388,341.485 40.667,340.520 40.667 L 339.849 40.667 339.800 39.625 C 339.751 38.597,339.147 38.075,338.619 38.603 M231.667 40.500 C 231.667 40.592,231.541 40.667,231.388 40.667 C 231.235 40.667,230.972 40.791,230.805 40.942 C 230.521 41.199,230.500 41.199,230.500 40.942 C 230.500 40.738,230.348 40.667,229.917 40.667 L 229.333 40.667 229.333 44.917 L 229.333 49.167 229.917 49.167 L 230.500 49.167 230.500 47.667 C 230.500 46.079,230.559 45.970,231.128 46.500 C 231.517 46.862,233.667 47.003,233.667 46.667 C 233.667 46.575,233.785 46.500,233.929 46.500 C 234.228 46.500,234.667 46.111,234.667 45.845 C 234.667 45.747,234.742 45.667,234.833 45.667 C 234.925 45.667,235.000 45.517,235.000 45.333 C 235.000 45.150,235.075 45.000,235.167 45.000 C 235.482 45.000,235.359 42.782,235.002 42.044 C 234.663 41.342,233.898 40.667,233.442 40.667 C 233.302 40.667,233.140 40.592,233.083 40.500 C 233.027 40.408,232.685 40.333,232.323 40.333 C 231.962 40.333,231.667 40.408,231.667 40.500 M239.750 40.500 C 239.693 40.592,239.536 40.667,239.400 40.667 C 239.034 40.667,237.833 41.838,237.833 42.193 C 237.833 42.362,237.758 42.500,237.667 42.500 C 237.570 42.500,237.500 43.028,237.500 43.750 C 237.500 44.472,237.570 45.000,237.667 45.000 C 237.758 45.000,237.833 45.096,237.833 45.213 C 237.833 45.526,238.772 46.500,239.074 46.500 C 239.217 46.500,239.333 46.575,239.333 46.667 C 239.333 46.763,239.861 46.833,240.583 46.833 C 241.306 46.833,241.833 46.763,241.833 46.667 C 241.833 46.575,241.936 46.500,242.061 46.500 C 243.210 46.500,244.118 43.523,243.395 42.125 C 243.004 41.369,242.135 40.667,241.589 40.667 C 241.448 40.667,241.333 40.592,241.333 40.500 C 241.333 40.408,241.000 40.333,240.593 40.333 C 240.186 40.333,239.807 40.408,239.750 40.500 M258.167 40.491 C 258.029 40.568,257.632 40.769,257.284 40.940 C 255.428 41.849,255.408 45.106,257.250 46.366 C 257.944 46.841,260.333 47.074,260.333 46.667 C 260.333 46.575,260.456 46.500,260.606 46.500 C 260.894 46.500,261.666 45.705,261.666 45.408 C 261.667 44.816,260.865 44.671,260.404 45.180 C 260.000 45.627,258.943 46.080,258.864 45.841 C 258.832 45.745,258.681 45.664,258.528 45.661 C 258.195 45.654,257.500 45.104,257.500 44.848 C 257.500 44.748,257.425 44.667,257.333 44.667 C 257.242 44.667,257.167 44.554,257.167 44.417 C 257.167 44.206,257.554 44.167,259.649 44.167 C 262.188 44.167,262.741 44.007,262.172 43.439 C 262.077 43.344,262.000 43.019,262.000 42.717 C 262.000 42.414,261.925 42.167,261.833 42.167 C 261.742 42.167,261.667 42.063,261.667 41.936 C 261.667 41.572,260.641 40.667,260.228 40.667 C 260.022 40.667,259.807 40.592,259.750 40.500 C 259.627 40.301,258.521 40.295,258.167 40.491 M267.250 40.500 C 267.193 40.592,266.973 40.667,266.761 40.667 C 266.548 40.667,266.281 40.779,266.167 40.917 C 266.053 41.054,265.893 41.167,265.813 41.167 C 265.732 41.167,265.667 41.054,265.667 40.917 C 265.667 40.742,265.491 40.667,265.083 40.667 L 264.500 40.667 264.500 43.750 L 264.500 46.833 264.982 46.833 C 265.608 46.833,265.667 46.647,265.667 44.667 C 265.667 42.833,265.928 42.107,266.665 41.897 C 267.303 41.715,267.322 41.710,267.500 41.688 C 267.711 41.661,267.721 40.333,267.510 40.333 C 267.424 40.333,267.307 40.408,267.250 40.500 M271.583 40.500 C 271.527 40.592,271.323 40.667,271.131 40.667 C 270.145 40.667,269.024 42.803,269.258 44.237 C 269.433 45.314,270.304 46.500,270.919 46.500 C 271.055 46.500,271.167 46.575,271.167 46.667 C 271.167 46.763,271.694 46.833,272.417 46.833 C 273.104 46.833,273.667 46.766,273.667 46.685 C 273.667 46.603,273.853 46.489,274.081 46.432 C 275.003 46.201,275.276 44.833,274.400 44.833 C 274.174 44.833,273.945 44.948,273.891 45.089 C 273.709 45.565,272.535 46.007,272.029 45.791 C 271.232 45.449,270.667 44.984,270.667 44.669 C 270.667 44.500,270.573 44.323,270.458 44.277 C 270.344 44.231,271.431 44.187,272.875 44.180 L 275.500 44.167 275.500 43.516 C 275.500 42.442,274.793 41.255,273.917 40.856 C 273.642 40.730,273.286 40.562,273.127 40.481 C 272.735 40.281,271.711 40.294,271.583 40.500 M322.750 40.500 C 322.693 40.592,322.479 40.667,322.273 40.667 C 322.068 40.667,321.810 40.757,321.700 40.867 C 321.544 41.022,321.456 41.022,321.300 40.867 C 321.190 40.757,320.852 40.667,320.550 40.667 L 320.000 40.667 320.000 43.750 L 320.000 46.833 320.566 46.833 C 321.291 46.833,321.333 46.707,321.333 44.526 C 321.333 42.491,321.594 41.978,322.737 41.763 C 323.337 41.651,323.370 41.610,323.370 41.000 C 323.370 40.412,323.338 40.333,323.093 40.333 C 322.961 40.333,322.807 40.408,322.750 40.500 M326.917 40.500 C 326.860 40.592,326.672 40.667,326.499 40.667 C 326.327 40.667,325.989 40.836,325.749 41.042 C 324.931 41.745,325.674 42.318,326.667 41.750 C 327.420 41.319,328.426 41.428,328.822 41.984 C 329.466 42.888,329.340 43.000,327.683 43.000 C 326.202 43.000,326.199 43.001,325.600 43.600 C 323.782 45.418,326.227 47.776,328.667 46.558 C 329.182 46.301,329.231 46.302,329.428 46.571 C 329.746 47.006,330.568 46.860,330.639 46.356 C 330.670 46.139,330.614 45.880,330.514 45.781 C 330.408 45.674,330.333 44.894,330.333 43.881 C 330.333 42.816,330.254 42.020,330.125 41.789 C 329.757 41.132,329.283 40.667,328.981 40.667 C 328.819 40.667,328.640 40.592,328.583 40.500 C 328.527 40.408,328.152 40.333,327.750 40.333 C 327.348 40.333,326.973 40.408,326.917 40.500 M345.417 40.500 C 345.360 40.592,345.171 40.667,344.997 40.667 C 344.612 40.667,343.341 41.841,343.313 42.224 C 343.275 42.715,343.252 42.804,343.125 42.931 C 342.737 43.319,343.243 45.255,343.909 45.928 C 345.423 47.459,349.185 46.926,348.763 45.241 C 348.629 44.708,348.137 44.712,347.598 45.250 C 347.369 45.479,347.033 45.667,346.851 45.667 C 346.669 45.667,346.476 45.737,346.423 45.824 C 346.202 46.181,344.849 45.320,344.545 44.629 L 344.344 44.175 346.881 44.129 C 349.368 44.084,349.418 44.076,349.470 43.708 C 349.499 43.502,349.443 43.333,349.345 43.333 C 349.247 43.333,349.167 43.071,349.167 42.750 C 349.167 42.429,349.092 42.167,349.000 42.167 C 348.908 42.167,348.833 42.062,348.833 41.934 C 348.833 41.604,347.719 40.667,347.328 40.667 C 347.147 40.667,347.000 40.592,347.000 40.500 C 347.000 40.408,346.667 40.333,346.260 40.333 C 345.853 40.333,345.473 40.408,345.417 40.500 M354.333 40.500 C 354.333 40.592,354.163 40.667,353.954 40.667 C 353.745 40.667,353.415 40.778,353.221 40.914 C 352.908 41.133,352.856 41.133,352.772 40.914 C 352.717 40.771,352.465 40.667,352.172 40.667 L 351.667 40.667 351.667 43.761 L 351.667 46.854 352.208 46.802 L 352.750 46.750 352.833 44.721 C 352.928 42.410,353.136 41.970,354.229 41.765 C 354.887 41.642,355.210 40.333,354.583 40.333 C 354.446 40.333,354.333 40.408,354.333 40.500 M245.391 41.166 C 245.446 41.440,245.643 41.979,245.829 42.364 C 246.015 42.748,246.167 43.161,246.167 43.281 C 246.167 43.402,246.242 43.500,246.333 43.500 C 246.425 43.500,246.500 43.614,246.500 43.752 C 246.500 43.891,246.567 44.135,246.650 44.294 C 246.732 44.453,246.928 44.921,247.086 45.333 C 247.636 46.770,247.686 46.833,248.264 46.833 C 248.795 46.833,249.212 46.113,249.702 44.348 C 249.738 44.219,249.908 44.482,250.079 44.932 C 251.090 47.590,251.544 47.546,252.784 44.667 C 252.922 44.346,253.170 43.783,253.335 43.417 C 253.501 43.050,253.774 42.394,253.943 41.959 C 254.112 41.524,254.306 41.168,254.375 41.167 C 254.444 41.167,254.500 41.050,254.500 40.907 C 254.500 40.366,253.134 40.669,252.955 41.250 C 252.871 41.525,252.584 42.214,252.317 42.781 C 252.051 43.348,251.833 43.890,251.833 43.985 C 251.833 44.081,251.684 44.404,251.501 44.704 C 251.179 45.232,251.168 45.236,251.161 44.833 C 251.158 44.604,251.048 44.229,250.917 44.000 C 250.606 43.457,250.606 42.821,250.916 42.227 C 251.053 41.965,251.165 41.619,251.166 41.458 C 251.166 41.298,251.242 41.167,251.333 41.167 C 251.425 41.167,251.500 41.054,251.500 40.917 C 251.500 40.281,250.390 40.626,250.027 41.375 C 249.838 41.765,249.680 41.956,249.675 41.800 C 249.656 41.147,249.288 40.667,248.807 40.667 C 248.194 40.667,248.179 41.109,248.754 42.242 C 249.132 42.988,249.151 43.117,248.951 43.576 C 248.367 44.912,248.187 45.232,248.177 44.958 C 248.171 44.797,247.979 44.276,247.750 43.801 C 247.521 43.326,247.333 42.839,247.333 42.719 C 247.333 42.598,247.258 42.500,247.167 42.500 C 247.075 42.500,247.000 42.354,247.000 42.177 C 247.000 41.999,246.935 41.813,246.855 41.763 C 246.775 41.714,246.664 41.447,246.609 41.170 C 246.519 40.720,246.444 40.667,245.900 40.667 C 245.313 40.667,245.295 40.684,245.391 41.166 M298.333 40.836 C 298.333 40.929,298.400 41.135,298.482 41.294 C 298.564 41.453,298.917 42.258,299.266 43.083 C 299.616 43.908,299.942 44.621,299.992 44.667 C 300.133 44.796,300.529 45.866,300.620 46.363 C 300.747 47.063,300.197 48.140,299.681 48.200 C 298.837 48.299,299.226 49.333,300.108 49.333 C 300.617 49.333,301.500 48.495,301.500 48.013 C 301.500 47.822,301.575 47.667,301.667 47.667 C 301.758 47.667,301.833 47.479,301.833 47.250 C 301.833 47.021,301.908 46.833,302.000 46.833 C 302.092 46.833,302.167 46.683,302.167 46.500 C 302.167 46.317,302.227 46.167,302.302 46.167 C 302.376 46.167,302.574 45.698,302.741 45.125 C 302.908 44.552,303.110 44.012,303.189 43.925 C 303.269 43.838,303.333 43.632,303.333 43.467 C 303.333 43.302,303.408 43.167,303.500 43.167 C 303.592 43.167,303.667 43.021,303.667 42.843 C 303.667 42.665,303.742 42.473,303.833 42.417 C 303.925 42.360,304.000 42.168,304.000 41.990 C 304.000 41.812,304.087 41.667,304.194 41.667 C 304.301 41.667,304.340 41.617,304.279 41.557 C 304.219 41.497,304.250 41.350,304.349 41.231 C 304.625 40.899,304.374 40.667,303.740 40.667 C 303.278 40.667,303.167 40.731,303.167 41.000 C 303.167 41.183,303.092 41.333,303.000 41.333 C 302.908 41.333,302.833 41.521,302.833 41.750 C 302.833 41.979,302.758 42.167,302.667 42.167 C 302.575 42.167,302.500 42.280,302.500 42.419 C 302.500 42.558,302.434 42.801,302.354 42.961 C 301.963 43.734,301.667 44.543,301.667 44.839 C 301.667 45.019,301.592 45.167,301.500 45.167 C 301.408 45.167,301.333 45.021,301.333 44.843 C 301.333 44.665,301.258 44.473,301.167 44.417 C 301.075 44.360,301.000 44.168,301.000 43.990 C 301.000 43.812,300.925 43.667,300.833 43.667 C 300.742 43.667,300.667 43.521,300.667 43.343 C 300.667 43.165,300.592 42.973,300.500 42.917 C 300.408 42.860,300.333 42.668,300.333 42.490 C 300.333 42.312,300.258 42.167,300.167 42.167 C 300.075 42.167,300.000 42.020,300.000 41.841 C 300.000 41.074,299.644 40.667,298.973 40.667 C 298.621 40.667,298.333 40.743,298.333 40.836 M233.075 41.813 C 234.824 42.839,234.280 45.667,232.333 45.667 C 230.315 45.667,229.671 42.683,231.500 41.802 C 232.230 41.451,232.460 41.452,233.075 41.813 M241.350 41.793 C 243.129 42.986,242.636 45.667,240.638 45.667 C 239.785 45.667,239.451 45.477,239.019 44.745 C 237.998 43.014,239.789 40.746,241.350 41.793 M260.004 41.779 C 260.264 41.932,260.519 42.176,260.572 42.321 C 260.624 42.465,260.711 42.677,260.764 42.792 C 260.839 42.952,260.430 43.000,259.000 43.000 C 257.570 43.000,257.161 42.952,257.236 42.792 C 257.289 42.677,257.375 42.469,257.426 42.329 C 257.691 41.605,259.174 41.288,260.004 41.779 M273.087 41.595 C 273.391 41.677,274.167 42.604,274.167 42.885 C 274.167 42.948,273.349 43.000,272.349 43.000 C 270.606 43.000,270.535 42.986,270.619 42.663 C 270.831 41.855,272.066 41.321,273.087 41.595 M281.208 41.772 C 282.083 42.224,282.167 42.389,282.167 43.663 C 282.167 45.556,280.709 46.382,279.365 45.251 C 277.696 43.847,279.314 40.792,281.208 41.772 M294.505 41.785 C 295.131 42.218,295.333 42.451,295.333 42.738 C 295.333 42.882,295.408 43.000,295.500 43.000 C 295.592 43.000,295.667 43.300,295.667 43.667 C 295.667 44.033,295.592 44.333,295.500 44.333 C 295.408 44.333,295.333 44.423,295.333 44.533 C 295.333 45.550,293.323 46.047,292.457 45.243 C 290.931 43.829,292.828 40.626,294.505 41.785 M347.244 41.781 C 347.568 41.935,347.833 42.154,347.833 42.267 C 347.833 42.380,347.879 42.591,347.934 42.736 C 348.023 42.967,347.803 43.000,346.171 43.000 C 344.738 43.000,344.328 42.952,344.403 42.792 C 344.456 42.677,344.542 42.466,344.594 42.324 C 344.868 41.573,346.225 41.295,347.244 41.781 M183.198 43.625 C 183.338 45.319,182.316 47.167,181.240 47.167 C 181.027 47.167,180.807 47.242,180.750 47.333 C 180.693 47.425,180.318 47.500,179.917 47.500 C 179.515 47.500,179.140 47.425,179.083 47.333 C 179.027 47.242,178.839 47.167,178.665 47.167 C 178.248 47.167,177.500 46.167,177.500 45.609 C 177.500 45.366,177.575 45.167,177.667 45.167 C 177.758 45.167,177.833 45.067,177.833 44.944 C 177.833 44.226,178.936 43.740,181.167 43.474 C 181.946 43.382,182.655 43.237,182.742 43.153 C 183.030 42.874,183.146 42.993,183.198 43.625 M328.967 44.033 C 329.455 44.521,328.799 45.667,328.032 45.667 C 327.868 45.667,327.654 45.746,327.557 45.843 C 327.292 46.108,326.263 45.480,326.195 45.012 C 326.059 44.088,328.248 43.315,328.967 44.033 " stroke="none" fill="#4d4e50" fill-rule="evenodd"></path><path id="path5" d="" stroke="none" fill="#993300" fill-rule="evenodd"></path><path id="path6" d="" stroke="none" fill="#c65500" fill-rule="evenodd"></path><path id="path7" d="" stroke="none" fill="#ff0000" fill-rule="evenodd"></path><path id="path8" d="" stroke="none" fill="#ff3300" fill-rule="evenodd"></path><path id="path9" d="M32.042 55.282 C 32.202 55.323,32.465 55.323,32.625 55.282 C 32.785 55.240,32.654 55.205,32.333 55.205 C 32.012 55.205,31.881 55.240,32.042 55.282 " stroke="none" fill="#d17400" fill-rule="evenodd"></path><path id="path10" d="" stroke="none" fill="#ff5500" fill-rule="evenodd"></path><path id="path11" d="M30.262 5.148 C 30.211 5.229,29.907 5.345,29.585 5.405 C 29.263 5.466,28.999 5.568,28.999 5.633 C 28.998 5.697,28.829 5.833,28.624 5.934 C 27.838 6.320,26.413 7.087,26.333 7.167 C 26.287 7.213,26.044 7.357,25.792 7.487 C 25.540 7.617,25.333 7.785,25.333 7.861 C 25.333 7.938,25.221 8.000,25.083 8.000 C 24.946 8.000,24.833 8.066,24.833 8.146 C 24.833 8.226,24.627 8.333,24.375 8.384 C 24.123 8.435,23.767 8.614,23.583 8.780 C 23.400 8.947,23.025 9.196,22.750 9.333 C 22.475 9.470,22.212 9.620,22.167 9.666 C 22.121 9.712,21.654 9.968,21.129 10.234 C 20.604 10.500,20.026 10.857,19.844 11.026 C 19.663 11.195,19.447 11.333,19.365 11.333 C 19.185 11.333,17.618 12.155,17.500 12.311 C 17.454 12.372,17.099 12.571,16.710 12.753 C 16.322 12.934,16.003 13.140,16.002 13.208 C 16.001 13.277,15.887 13.333,15.750 13.333 C 15.612 13.333,15.500 13.408,15.500 13.500 C 15.500 13.592,15.406 13.668,15.292 13.670 C 15.177 13.672,14.896 13.821,14.667 14.000 C 14.438 14.179,14.151 14.328,14.031 14.330 C 13.910 14.332,13.565 14.521,13.265 14.750 C 12.964 14.979,12.645 15.167,12.555 15.167 C 12.313 15.167,10.667 16.867,10.667 17.117 C 10.667 17.236,10.610 17.333,10.541 17.333 C 9.933 17.333,9.492 41.557,10.092 41.964 C 10.188 42.030,10.390 42.346,10.541 42.667 C 10.691 42.987,10.950 43.378,11.115 43.534 C 11.281 43.691,11.679 44.084,12.000 44.409 C 12.321 44.733,12.715 44.999,12.875 44.999 C 13.035 45.000,13.167 45.075,13.167 45.167 C 13.167 45.258,13.279 45.333,13.417 45.333 C 13.554 45.333,13.667 45.408,13.667 45.500 C 13.667 45.592,13.817 45.667,14.000 45.667 C 14.183 45.667,14.334 45.723,14.334 45.792 C 14.336 45.948,15.291 46.500,15.560 46.500 C 15.670 46.500,15.868 46.650,16.000 46.833 C 16.132 47.017,16.374 47.167,16.537 47.167 C 16.700 47.167,16.834 47.223,16.835 47.292 C 16.836 47.360,17.155 47.566,17.544 47.747 C 17.932 47.929,18.287 48.117,18.333 48.164 C 18.379 48.211,18.585 48.344,18.792 48.458 C 19.733 48.981,19.918 49.096,20.130 49.292 C 20.255 49.406,20.464 49.500,20.595 49.500 C 20.726 49.500,20.833 49.575,20.833 49.667 C 20.833 49.758,20.977 49.833,21.153 49.833 C 21.328 49.833,21.497 49.890,21.528 49.958 C 21.595 50.109,22.800 50.818,23.208 50.947 C 23.369 50.997,23.500 51.105,23.500 51.186 C 23.500 51.267,23.566 51.333,23.646 51.333 C 23.793 51.333,25.604 52.367,25.917 52.629 C 26.008 52.706,26.327 52.876,26.625 53.008 C 26.923 53.140,27.167 53.305,27.167 53.374 C 27.167 53.443,27.273 53.500,27.403 53.500 C 27.701 53.500,28.664 54.041,28.666 54.208 C 28.666 54.277,28.817 54.333,29.000 54.333 C 29.183 54.333,29.333 54.390,29.333 54.459 C 29.333 55.131,34.377 55.480,34.833 54.840 C 34.879 54.776,35.329 54.518,35.833 54.268 C 36.918 53.729,37.322 53.490,37.630 53.209 C 37.754 53.094,38.039 52.955,38.262 52.899 C 38.484 52.843,38.667 52.743,38.667 52.676 C 38.667 52.609,39.079 52.346,39.583 52.091 C 40.087 51.836,40.500 51.561,40.500 51.480 C 40.500 51.399,40.650 51.333,40.833 51.333 C 41.017 51.333,41.167 51.258,41.167 51.167 C 41.167 51.075,41.269 51.000,41.393 51.000 C 41.518 51.000,41.896 50.813,42.234 50.583 C 42.572 50.354,42.957 50.167,43.091 50.167 C 43.224 50.167,43.333 50.104,43.333 50.028 C 43.333 49.952,43.540 49.783,43.792 49.653 C 44.472 49.303,46.237 48.274,46.333 48.172 C 46.379 48.123,46.829 47.864,47.333 47.597 C 47.837 47.329,48.288 47.066,48.333 47.013 C 48.379 46.960,48.792 46.722,49.250 46.485 C 50.987 45.585,51.590 45.244,51.804 45.042 C 51.925 44.927,52.098 44.833,52.189 44.833 C 52.444 44.833,54.000 43.176,54.000 42.906 C 54.000 42.774,54.075 42.667,54.167 42.667 C 54.258 42.667,54.333 42.517,54.333 42.333 C 54.333 42.150,54.408 42.000,54.500 42.000 C 54.592 42.000,54.667 41.817,54.667 41.593 C 54.667 41.369,54.742 41.140,54.833 41.083 C 55.063 40.941,55.063 19.059,54.833 18.917 C 54.742 18.860,54.667 18.593,54.667 18.323 C 54.667 18.054,54.605 17.833,54.531 17.833 C 54.456 17.833,54.216 17.515,53.997 17.125 C 53.451 16.151,50.732 14.000,50.048 14.000 C 49.964 14.000,49.751 13.869,49.573 13.708 C 49.395 13.548,48.800 13.192,48.250 12.917 C 47.700 12.642,47.212 12.369,47.167 12.311 C 46.988 12.083,45.504 11.333,45.232 11.333 C 45.074 11.333,44.993 11.284,45.053 11.225 C 45.113 11.165,44.994 11.026,44.789 10.916 C 44.584 10.807,44.004 10.476,43.500 10.183 C 42.996 9.889,42.452 9.606,42.292 9.555 C 42.131 9.503,42.000 9.395,42.000 9.314 C 42.000 9.233,41.887 9.167,41.750 9.167 C 41.612 9.167,41.499 9.110,41.498 9.042 C 41.498 8.973,41.160 8.769,40.748 8.588 C 40.337 8.407,40.000 8.200,40.000 8.129 C 40.000 8.058,39.856 8.000,39.681 8.000 C 39.505 8.000,39.336 7.941,39.306 7.869 C 39.216 7.658,38.285 7.055,37.833 6.915 C 37.604 6.844,36.987 6.496,36.463 6.140 C 35.938 5.784,35.280 5.448,35.001 5.392 C 34.722 5.336,34.453 5.225,34.403 5.145 C 34.285 4.954,30.380 4.956,30.262 5.148 M34.792 14.699 C 35.548 15.071,36.167 15.426,36.167 15.488 C 36.167 15.549,36.429 15.695,36.750 15.811 C 37.071 15.927,37.333 16.092,37.333 16.177 C 37.333 16.263,37.483 16.333,37.667 16.333 C 37.850 16.333,38.000 16.394,38.000 16.468 C 38.000 16.542,38.317 16.742,38.704 16.913 C 39.092 17.084,39.556 17.361,39.736 17.529 C 39.916 17.696,40.155 17.833,40.268 17.833 C 40.380 17.833,40.497 17.890,40.528 17.958 C 40.558 18.027,40.846 18.225,41.167 18.397 C 42.790 19.272,43.591 19.733,43.667 19.836 C 43.712 19.899,44.050 20.091,44.417 20.263 C 45.100 20.584,46.000 21.385,46.000 21.672 C 46.000 21.761,46.075 21.833,46.167 21.833 C 46.258 21.833,46.333 21.940,46.333 22.069 C 46.333 22.199,46.421 22.335,46.528 22.370 C 46.654 22.412,46.749 23.077,46.798 24.260 L 46.873 26.084 46.228 26.429 C 45.228 26.966,44.757 27.241,44.667 27.345 C 44.621 27.397,44.233 27.607,43.805 27.811 C 43.377 28.016,42.937 28.292,42.826 28.425 C 42.716 28.558,42.523 28.667,42.396 28.667 C 42.270 28.667,42.167 28.736,42.167 28.820 C 42.167 28.904,41.942 29.023,41.667 29.083 C 41.392 29.144,41.167 29.262,41.167 29.347 C 41.167 29.431,41.054 29.500,40.917 29.500 C 40.779 29.500,40.667 29.561,40.667 29.636 C 40.667 29.710,40.404 29.874,40.083 30.000 C 39.762 30.126,39.500 30.290,39.500 30.364 C 39.500 30.439,39.375 30.500,39.221 30.500 C 39.068 30.500,38.825 30.605,38.680 30.733 C 38.370 31.007,37.198 31.698,36.232 32.176 C 35.855 32.362,35.401 32.642,35.223 32.799 C 34.389 33.530,33.124 34.013,32.803 33.722 C 31.842 32.853,32.629 28.333,33.741 28.333 C 33.883 28.333,34.000 28.267,34.000 28.186 C 34.000 28.105,34.131 27.994,34.292 27.939 C 34.452 27.884,34.958 27.611,35.417 27.332 C 35.875 27.053,36.456 26.736,36.708 26.626 C 36.960 26.517,37.167 26.368,37.167 26.297 C 37.167 26.225,37.279 26.167,37.417 26.167 C 37.554 26.167,37.667 26.100,37.667 26.018 C 37.667 25.936,37.837 25.827,38.045 25.775 C 38.253 25.722,38.587 25.527,38.788 25.340 C 38.989 25.153,39.268 25.000,39.410 25.000 C 39.551 25.000,39.667 24.925,39.667 24.833 C 39.667 24.742,39.779 24.667,39.917 24.667 C 40.054 24.667,40.167 24.600,40.167 24.519 C 40.167 24.438,40.317 24.333,40.500 24.285 C 41.252 24.089,39.592 22.333,38.655 22.333 C 38.570 22.333,38.499 22.277,38.498 22.208 C 38.498 22.140,38.160 21.935,37.748 21.754 C 37.337 21.573,37.000 21.367,37.000 21.296 C 37.000 21.225,36.850 21.167,36.667 21.167 C 36.483 21.167,36.333 21.104,36.333 21.027 C 36.333 20.951,35.902 20.673,35.375 20.409 C 34.848 20.146,34.379 19.890,34.333 19.840 C 33.764 19.223,31.538 19.132,30.547 19.686 C 29.003 20.549,28.413 20.913,28.361 21.035 C 28.331 21.108,28.199 21.167,28.069 21.167 C 27.940 21.167,27.833 21.242,27.833 21.333 C 27.833 21.425,27.701 21.500,27.539 21.500 C 27.377 21.500,26.968 21.688,26.631 21.917 C 26.294 22.146,25.939 22.333,25.842 22.333 C 25.746 22.333,25.667 22.408,25.667 22.500 C 25.667 22.592,25.560 22.667,25.431 22.667 C 25.301 22.667,25.169 22.723,25.139 22.792 C 25.108 22.860,24.789 23.067,24.430 23.250 C 24.070 23.433,23.528 23.921,23.226 24.333 L 22.675 25.083 22.671 29.933 C 22.667 34.132,22.704 34.858,22.945 35.349 C 23.274 36.020,23.919 36.667,24.259 36.667 C 24.391 36.667,24.500 36.729,24.500 36.806 C 24.500 36.882,24.931 37.163,25.458 37.431 C 25.985 37.698,26.442 37.973,26.472 38.042 C 26.503 38.110,26.634 38.167,26.764 38.167 C 26.894 38.167,27.000 38.223,27.000 38.293 C 27.000 38.362,27.372 38.589,27.827 38.798 C 28.281 39.006,28.753 39.268,28.874 39.380 C 28.996 39.492,29.542 39.800,30.089 40.065 C 30.636 40.330,31.214 40.611,31.373 40.690 C 31.753 40.878,33.121 40.875,33.238 40.686 C 33.289 40.604,33.585 40.490,33.898 40.431 C 34.211 40.372,34.558 40.215,34.669 40.081 C 34.780 39.947,34.938 39.878,35.019 39.928 C 35.100 39.979,35.167 39.951,35.167 39.866 C 35.167 39.782,35.598 39.478,36.125 39.191 C 37.369 38.514,38.063 38.106,38.167 37.991 C 38.212 37.941,38.512 37.769,38.833 37.609 C 39.154 37.450,39.679 37.162,40.000 36.970 C 40.321 36.778,40.921 36.432,41.333 36.203 C 41.746 35.973,42.282 35.646,42.526 35.476 C 42.769 35.306,43.088 35.167,43.234 35.167 C 43.380 35.167,43.500 35.097,43.500 35.011 C 43.500 34.926,43.667 34.803,43.872 34.738 C 44.280 34.608,45.218 33.990,45.306 33.792 C 45.336 33.723,45.505 33.667,45.681 33.667 C 45.856 33.667,46.001 33.610,46.001 33.542 C 46.002 33.473,46.198 33.326,46.437 33.215 L 46.872 33.013 46.805 35.286 C 46.759 36.872,46.677 37.580,46.536 37.627 C 46.425 37.664,46.333 37.763,46.333 37.846 C 46.333 37.929,46.188 38.167,46.010 38.374 C 45.832 38.581,45.551 38.907,45.385 39.099 C 45.219 39.290,44.708 39.655,44.250 39.909 C 43.792 40.163,43.379 40.424,43.333 40.489 C 43.259 40.595,42.717 40.839,42.500 40.865 C 42.454 40.870,42.103 41.090,41.720 41.354 C 41.337 41.618,40.943 41.833,40.845 41.833 C 40.747 41.833,40.666 41.890,40.666 41.958 C 40.666 42.027,40.328 42.222,39.916 42.392 C 39.504 42.561,39.167 42.753,39.167 42.819 C 39.167 42.884,38.904 43.041,38.583 43.167 C 38.262 43.293,38.000 43.457,38.000 43.531 C 38.000 43.606,37.888 43.667,37.750 43.667 C 37.613 43.667,37.135 43.929,36.689 44.250 C 36.242 44.571,35.792 44.833,35.688 44.833 C 35.585 44.833,35.500 44.900,35.500 44.982 C 35.500 45.064,35.298 45.181,35.052 45.243 C 34.805 45.305,34.400 45.501,34.151 45.678 C 33.448 46.178,31.498 46.130,30.365 45.583 C 29.890 45.354,29.426 45.167,29.334 45.167 C 29.242 45.167,29.167 45.106,29.167 45.033 C 29.167 44.913,28.045 44.242,27.043 43.762 C 26.837 43.664,26.669 43.527,26.668 43.458 C 26.667 43.390,26.560 43.333,26.431 43.333 C 26.301 43.333,26.169 43.275,26.139 43.204 C 26.108 43.134,25.618 42.843,25.048 42.559 C 24.479 42.275,24.060 41.995,24.118 41.938 C 24.175 41.880,24.060 41.833,23.861 41.833 C 23.662 41.833,23.500 41.758,23.500 41.667 C 23.500 41.575,23.397 41.500,23.270 41.500 C 23.144 41.500,22.947 41.388,22.833 41.250 C 22.719 41.113,22.485 41.000,22.313 41.000 C 22.141 41.000,22.000 40.925,22.000 40.833 C 22.000 40.742,21.867 40.667,21.703 40.667 C 21.540 40.667,21.299 40.517,21.167 40.333 C 21.035 40.150,20.793 40.000,20.630 40.000 C 20.467 40.000,20.333 39.925,20.333 39.833 C 20.333 39.742,20.255 39.667,20.160 39.667 C 19.924 39.667,19.000 38.972,19.000 38.795 C 19.000 38.716,18.813 38.450,18.583 38.203 C 18.354 37.956,18.167 37.626,18.167 37.470 C 18.167 37.314,18.092 37.140,18.000 37.083 C 17.893 37.017,17.833 34.530,17.833 30.168 L 17.833 23.355 18.272 22.344 C 18.513 21.788,18.766 21.333,18.834 21.333 C 18.902 21.333,19.245 21.071,19.595 20.750 C 19.945 20.429,20.298 20.167,20.378 20.167 C 20.459 20.167,21.026 19.845,21.637 19.451 C 22.249 19.058,23.097 18.574,23.521 18.377 C 23.945 18.179,24.395 17.916,24.521 17.792 C 24.647 17.668,25.133 17.377,25.602 17.145 C 26.070 16.912,26.670 16.571,26.935 16.386 C 27.200 16.201,27.735 15.912,28.125 15.743 C 28.515 15.574,28.833 15.389,28.833 15.332 C 28.833 15.275,29.096 15.126,29.417 15.000 C 29.738 14.874,30.000 14.716,30.000 14.649 C 30.000 14.506,31.236 14.037,31.833 13.954 C 32.663 13.839,33.442 14.036,34.792 14.699 " stroke="none" fill="#f8991c" fill-rule="evenodd"></path><path id="path12" d="" stroke="none" fill="#ffb600" fill-rule="evenodd"></path><path id="path13" d="" stroke="none" fill="#ffff00" fill-rule="evenodd"></path></g></svg>