<?xml version="1.0" encoding="utf-8"?>
<!-- Generator: Adobe Illustrator 22.0.1, SVG Export Plug-In . SVG Version: 6.00 Build 0)  -->
<svg version="1.1" id="Layer_1" xmlns="http://www.w3.org/2000/svg" xmlns:xlink="http://www.w3.org/1999/xlink" x="0px" y="0px"
	 viewBox="0 0 320.1 48.2" style="enable-background:new 0 0 320.1 48.2;" xml:space="preserve">
<style type="text/css">
	.st0{fill-rule:evenodd;clip-rule:evenodd;fill:#D1D3D4;}
	.st1{fill-rule:evenodd;clip-rule:evenodd;fill:#F8991D;}
	.st2{fill-rule:evenodd;clip-rule:evenodd;fill:url(#SVGID_1_);}
	.st3{fill-rule:evenodd;clip-rule:evenodd;fill:url(#SVGID_2_);}
	.st4{fill-rule:evenodd;clip-rule:evenodd;fill:url(#SVGID_3_);}
	.st5{fill:url(#SVGID_4_);}
	.st6{fill:url(#SVGID_5_);}
	.st7{fill:#DEDEDE;}
	.st8{fill:#9E1F63;}
	.st9{fill:#C2B59B;}
	.st10{fill:#E0E1E2;}
	.st11{fill:#64B7E6;}
	.st12{fill:#ED1E24;}
	.st13{clip-path:url(#SVGID_7_);fill:#4E4E4F;}
	.st14{clip-path:url(#SVGID_7_);fill:#F8991D;}
	.st15{fill:#F8991D;}
	.st16{fill-rule:evenodd;clip-rule:evenodd;fill:#8DC63F;}
	.st17{fill:none;stroke:#92D7EB;stroke-width:4;stroke-miterlimit:10;}
	.st18{fill:url(#SVGID_8_);}
	.st19{fill:url(#SVGID_9_);}
	.st20{fill:url(#SVGID_10_);}
	.st21{fill:url(#SVGID_11_);}
	.st22{fill:url(#SVGID_12_);}
	.st23{fill:url(#SVGID_13_);}
	.st24{fill:url(#SVGID_14_);}
	.st25{fill:none;stroke:url(#SVGID_15_);stroke-width:4;}
	.st26{fill-rule:evenodd;clip-rule:evenodd;fill:#ED1E64;}
	.st27{fill-rule:evenodd;clip-rule:evenodd;fill:#17A59D;}
	.st28{fill-rule:evenodd;clip-rule:evenodd;fill:#A4CD39;}
	.st29{clip-path:url(#SVGID_17_);}
	.st30{fill:#00B287;}
	.st31{fill:#138C77;}
	.st32{fill:#6DCACA;}
	.st33{fill:#07BAC8;}
	.st34{fill:#96D4CB;}
	.st35{fill:#1DB69B;}
	.st36{fill:#58C5CA;}
	.st37{fill:#00A9AC;}
	.st38{fill:#00B087;}
	.st39{fill:#006F51;}
	.st40{fill:#059A91;}
	.st41{fill:#03AD9C;}
	.st42{fill:#00B38C;}
	.st43{fill:#28B687;}
	.st44{fill:#06B8AB;}
	.st45{fill:#00A788;}
	.st46{clip-path:url(#SVGID_19_);}
	.st47{clip-path:url(#SVGID_21_);}
	.st48{fill:url(#SVGID_22_);}
	.st49{fill:url(#SVGID_23_);}
	.st50{fill:url(#SVGID_24_);}
	.st51{opacity:0.6;fill:url(#);}
	.st52{opacity:0.6;}
	.st53{fill:url(#);}
	.st54{fill-rule:evenodd;clip-rule:evenodd;fill:#FFFFFF;}
	.st55{fill:#ED1C24;}
	.st56{fill:#AE9D7E;}
	.st57{clip-path:url(#SVGID_26_);fill:#4E4E4F;}
	.st58{clip-path:url(#SVGID_26_);fill:#F8991D;}
	.st59{clip-path:url(#SVGID_28_);fill:#4E4E4F;}
	.st60{clip-path:url(#SVGID_28_);fill:#F8991D;}
	.st61{fill:none;stroke:#4E4E4F;stroke-width:0.75;}
	.st62{fill-rule:evenodd;clip-rule:evenodd;fill:#6D6E71;}
	.st63{fill-rule:evenodd;clip-rule:evenodd;fill:#808285;}
	.st64{fill:#4E4E4F;}
	.st65{fill-rule:evenodd;clip-rule:evenodd;fill:#4E4E4F;}
	.st66{fill:#808285;}
	.st67{fill:#FFFFFF;}
</style>
<g>
	<defs>
		<rect id="SVGID_6_" x="-5.4" y="-9.4" width="174.7" height="66.5"/>
	</defs>
	<clipPath id="SVGID_1_">
		<use xlink:href="#SVGID_6_"  style="overflow:visible;"/>
	</clipPath>
	<path style="clip-path:url(#SVGID_1_);fill:#4E4E4F;" d="M51.3,11.6c-0.2,0-0.4-0.2-0.4-0.4c0.1-0.6,0.3-1.2,0.6-1.6
		c0.4-0.5,0.8-1,1.4-1.3c0.6-0.3,1.2-0.6,1.9-0.7c0.7-0.1,1.4-0.2,2.1-0.2c0.6,0,1.3,0,1.9,0.1C59.4,7.6,60,7.8,60.6,8
		c0.5,0.3,1,0.6,1.3,1.1c0.3,0.5,0.5,1.1,0.5,1.8v6.6c0,0.6,0,1.1,0.1,1.6c0,0.3,0.1,0.5,0.1,0.7c0.1,0.2-0.1,0.5-0.4,0.5h-2.6
		c-0.2,0-0.3-0.1-0.4-0.3c0-0.1-0.1-0.2-0.1-0.3c0-0.2-0.1-0.4-0.1-0.6c-0.6,0.6-1.2,1-2,1.2c-0.7,0.2-1.5,0.3-2.3,0.3
		c-0.6,0-1.2-0.1-1.7-0.2c-0.5-0.1-1-0.4-1.4-0.7c-0.4-0.3-0.7-0.7-0.9-1.2c-0.2-0.5-0.3-1-0.3-1.7c0-0.7,0.1-1.3,0.4-1.8
		c0.3-0.5,0.6-0.8,1-1.1c0.4-0.3,0.9-0.5,1.4-0.6c0.5-0.1,1-0.2,1.6-0.3c0.5-0.1,1-0.1,1.5-0.2c0.5,0,1-0.1,1.3-0.2
		c0.4-0.1,0.7-0.2,0.9-0.4c0.2-0.2,0.3-0.5,0.3-0.8c0-0.4-0.1-0.7-0.2-0.9c-0.1-0.2-0.3-0.4-0.5-0.5c-0.2-0.1-0.4-0.2-0.7-0.2
		c-0.3,0-0.6-0.1-0.9-0.1c-0.7,0-1.2,0.1-1.6,0.4c-0.3,0.2-0.5,0.6-0.6,1.2c0,0.2-0.2,0.3-0.4,0.3H51.3 M58.9,14.2
		c-0.1,0.1-0.3,0.2-0.6,0.3c-0.2,0.1-0.5,0.1-0.7,0.2c-0.3,0-0.5,0.1-0.8,0.1c-0.3,0-0.6,0.1-0.8,0.1c-0.3,0-0.5,0.1-0.8,0.2
		c-0.3,0.1-0.5,0.2-0.7,0.3c-0.2,0.1-0.3,0.3-0.5,0.5C54,16.2,54,16.4,54,16.8c0,0.3,0.1,0.6,0.2,0.8c0.1,0.2,0.3,0.4,0.5,0.5
		c0.2,0.1,0.4,0.2,0.7,0.3c0.3,0,0.5,0.1,0.8,0.1c0.7,0,1.2-0.1,1.6-0.3c0.4-0.2,0.7-0.5,0.8-0.8c0.2-0.3,0.3-0.6,0.3-1
		c0-0.3,0.1-0.6,0.1-0.8V14.2z"/>
	<path style="clip-path:url(#SVGID_1_);fill:#4E4E4F;" d="M75,20.3c-0.2,0-0.3-0.1-0.4-0.3l-2.2-8.2h0l-2.1,8.2
		c0,0.2-0.2,0.3-0.4,0.3h-3c-0.2,0-0.3-0.1-0.4-0.3L62.9,8.2C62.8,8,63,7.7,63.2,7.7h2.9c0.2,0,0.3,0.1,0.4,0.3l2.2,8.3h0l2-8.3
		c0-0.2,0.2-0.3,0.4-0.3h2.8c0.2,0,0.3,0.1,0.4,0.3l2.1,8.3h0L78.7,8c0-0.2,0.2-0.3,0.4-0.3h2.8c0.3,0,0.4,0.3,0.4,0.5l-3.7,11.9
		c-0.1,0.2-0.2,0.3-0.4,0.3H75"/>
	<path style="clip-path:url(#SVGID_1_);fill:#4E4E4F;" d="M86,17.2c0.2,0.3,0.4,0.5,0.6,0.7c0.2,0.2,0.5,0.3,0.8,0.4
		c0.3,0.1,0.6,0.1,1,0.1c0.2,0,0.5,0,0.8-0.1c0.3-0.1,0.5-0.1,0.7-0.3c0.2-0.1,0.4-0.3,0.6-0.5c0.1-0.2,0.2-0.5,0.2-0.8
		c0-0.5-0.3-0.9-1-1.2c-0.7-0.3-1.7-0.5-2.9-0.8c-0.5-0.1-1-0.2-1.5-0.4c-0.5-0.2-0.9-0.4-1.3-0.6c-0.4-0.3-0.7-0.6-0.9-1
		c-0.2-0.4-0.3-0.9-0.3-1.4c0-0.8,0.2-1.5,0.5-2c0.3-0.5,0.7-0.9,1.3-1.2c0.5-0.3,1.1-0.5,1.8-0.6c0.7-0.1,1.3-0.2,2-0.2
		c0.7,0,1.3,0.1,2,0.2c0.6,0.1,1.2,0.4,1.7,0.7c0.5,0.3,0.9,0.7,1.3,1.2c0.3,0.4,0.4,0.9,0.5,1.5c0,0.2-0.1,0.4-0.4,0.4h-2.5
		c-0.2,0-0.3-0.1-0.4-0.3c-0.1-0.5-0.3-0.9-0.7-1.1c-0.5-0.2-1-0.4-1.6-0.4c-0.2,0-0.4,0-0.6,0c-0.2,0-0.4,0.1-0.6,0.2
		c-0.2,0.1-0.3,0.2-0.5,0.4c-0.1,0.2-0.2,0.4-0.2,0.6c0,0.3,0.1,0.6,0.3,0.8c0.2,0.2,0.5,0.4,0.9,0.5c0.4,0.1,0.8,0.2,1.3,0.3
		c0.5,0.1,1,0.2,1.4,0.3c0.5,0.1,1,0.3,1.5,0.4c0.5,0.2,0.9,0.4,1.3,0.6c0.4,0.3,0.7,0.6,0.9,1c0.2,0.4,0.3,0.9,0.3,1.5
		c0,0.8-0.2,1.5-0.5,2.1c-0.3,0.6-0.8,1-1.3,1.4c-0.5,0.3-1.2,0.6-1.8,0.7c-0.7,0.1-1.4,0.2-2.1,0.2c-0.7,0-1.5-0.1-2.2-0.2
		c-0.7-0.1-1.3-0.4-1.9-0.7c-0.5-0.3-1-0.8-1.3-1.4c-0.3-0.5-0.5-1-0.5-1.7c0-0.2,0.2-0.4,0.4-0.4h2.5c0.2,0,0.4,0.1,0.4,0.3
		C85.8,16.8,85.9,17,86,17.2"/>
	<path style="clip-path:url(#SVGID_1_);fill:#4E4E4F;" d="M54.8,37c0.5,0.5,1.3,0.8,2.2,0.8c0.7,0,1.3-0.2,1.8-0.5
		c0.4-0.3,0.7-0.6,0.8-0.9c0.1-0.1,0.2-0.2,0.3-0.2h2.3c0.3,0,0.5,0.3,0.4,0.5c-0.5,1.2-1.2,2.1-2.1,2.7c-1,0.7-2.2,1-3.7,1
		c-1,0-1.9-0.2-2.7-0.5c-0.8-0.3-1.5-0.8-2-1.4c-0.6-0.6-1-1.3-1.3-2.1c-0.3-0.8-0.5-1.7-0.5-2.7c0-0.9,0.2-1.8,0.5-2.6
		c0.3-0.8,0.7-1.5,1.3-2.1c0.6-0.6,1.3-1.1,2-1.4C55.1,27.2,56,27,57,27c1.1,0,2,0.2,2.8,0.6c0.8,0.4,1.5,1,2,1.7
		c0.5,0.7,0.9,1.5,1.1,2.4c0.2,0.8,0.3,1.6,0.3,2.4c0,0.2-0.2,0.4-0.4,0.4h-8.3c-0.2,0-0.4,0.2-0.4,0.4C54.1,35.8,54.4,36.5,54.8,37
		 M58.8,30.3c-0.4-0.5-1-0.7-1.9-0.7c-0.6,0-1,0.1-1.4,0.3c-0.4,0.2-0.7,0.4-0.9,0.7c-0.2,0.3-0.4,0.6-0.5,0.9
		c0,0.1-0.1,0.3-0.1,0.4c-0.1,0.2,0.1,0.5,0.4,0.5h4.7c0.3,0,0.4-0.2,0.4-0.5C59.4,31.2,59.1,30.7,58.8,30.3z"/>
	<path style="clip-path:url(#SVGID_1_);fill:#4E4E4F;" d="M73.7,37c0.5,0.5,1.3,0.8,2.2,0.8c0.7,0,1.3-0.2,1.8-0.5
		c0.4-0.3,0.7-0.6,0.8-0.9c0.1-0.1,0.2-0.2,0.3-0.2h2.3c0.3,0,0.5,0.3,0.4,0.5c-0.5,1.2-1.2,2.1-2.1,2.7c-1,0.7-2.2,1-3.7,1
		c-1,0-1.9-0.2-2.7-0.5c-0.8-0.3-1.5-0.8-2-1.4c-0.6-0.6-1-1.3-1.3-2.1c-0.3-0.8-0.5-1.7-0.5-2.7c0-0.9,0.2-1.8,0.5-2.6
		c0.3-0.8,0.7-1.5,1.3-2.1c0.6-0.6,1.3-1.1,2-1.4c0.8-0.3,1.7-0.5,2.6-0.5c1.1,0,2,0.2,2.8,0.6c0.8,0.4,1.5,1,2,1.7
		c0.5,0.7,0.9,1.5,1.1,2.4c0.2,0.8,0.3,1.6,0.3,2.4c0,0.2-0.2,0.4-0.4,0.4h-8.3c-0.2,0-0.4,0.2-0.4,0.4C73,35.8,73.3,36.5,73.7,37
		 M77.6,30.3c-0.4-0.5-1-0.7-1.9-0.7c-0.6,0-1,0.1-1.4,0.3c-0.4,0.2-0.7,0.4-0.9,0.7c-0.2,0.3-0.4,0.6-0.5,0.9
		c0,0.1-0.1,0.3-0.1,0.4c-0.1,0.2,0.1,0.5,0.4,0.5H78c0.3,0,0.4-0.2,0.4-0.5C78.2,31.2,78,30.7,77.6,30.3z"/>
	<path style="clip-path:url(#SVGID_1_);fill:#4E4E4F;" d="M86.3,27.3c0.2,0,0.4,0.2,0.4,0.4v1.3h0c0.5-0.7,1-1.2,1.7-1.5
		c0.6-0.4,1.4-0.5,2.2-0.5c0.8,0,1.5,0.2,2.2,0.5c0.5,0.2,0.9,0.6,1.2,1.1c0.1,0.2,0.4,0.3,0.6,0.1c0.3-0.4,0.7-0.7,1.2-1
		c0.6-0.4,1.4-0.6,2.3-0.6c0.7,0,1.3,0.1,1.9,0.2c0.6,0.2,1.1,0.4,1.5,0.8c0.4,0.4,0.7,0.8,1,1.4c0.2,0.6,0.3,1.3,0.3,2.1v8.1
		c0,0.2-0.2,0.4-0.4,0.4h-2.7c-0.2,0-0.4-0.2-0.4-0.4v-6.8c0-0.4,0-0.8,0-1.2c0-0.4-0.1-0.7-0.3-1c-0.1-0.3-0.4-0.5-0.6-0.7
		c-0.3-0.2-0.7-0.2-1.2-0.2c-0.5,0-0.9,0.1-1.2,0.3c-0.3,0.2-0.5,0.4-0.7,0.7c-0.2,0.3-0.3,0.6-0.3,1c-0.1,0.4-0.1,0.8-0.1,1.2v6.7
		c0,0.2-0.2,0.4-0.4,0.4h-2.7c-0.2,0-0.4-0.2-0.4-0.4v-6.7c0-0.4,0-0.7,0-1.1c0-0.4-0.1-0.7-0.2-1c-0.1-0.3-0.3-0.6-0.6-0.7
		c-0.3-0.2-0.7-0.3-1.3-0.3c-0.2,0-0.4,0-0.6,0.1c-0.3,0.1-0.5,0.2-0.8,0.4c-0.3,0.2-0.5,0.5-0.6,0.9c-0.2,0.4-0.3,0.9-0.3,1.5v7
		c0,0.2-0.2,0.4-0.4,0.4h-2.7c-0.2,0-0.4-0.2-0.4-0.4V27.7c0-0.2,0.2-0.4,0.4-0.4H86.3"/>
	<path style="clip-path:url(#SVGID_1_);fill:#4E4E4F;" d="M108.4,37c0.5,0.5,1.3,0.8,2.2,0.8c0.7,0,1.3-0.2,1.8-0.5
		c0.4-0.3,0.7-0.6,0.8-0.9c0.1-0.1,0.2-0.2,0.3-0.2h2.3c0.3,0,0.5,0.3,0.4,0.5c-0.5,1.2-1.2,2.1-2.1,2.7c-1,0.7-2.2,1-3.7,1
		c-1,0-1.9-0.2-2.7-0.5c-0.8-0.3-1.5-0.8-2-1.4c-0.6-0.6-1-1.3-1.3-2.1c-0.3-0.8-0.5-1.7-0.5-2.7c0-0.9,0.2-1.8,0.5-2.6
		c0.3-0.8,0.7-1.5,1.3-2.1c0.6-0.6,1.3-1.1,2-1.4c0.8-0.3,1.7-0.5,2.6-0.5c1.1,0,2,0.2,2.8,0.6c0.8,0.4,1.5,1,2,1.7s0.9,1.5,1.1,2.4
		c0.2,0.8,0.3,1.6,0.3,2.4c0,0.2-0.2,0.4-0.4,0.4H108c-0.2,0-0.4,0.2-0.4,0.4C107.7,35.8,108,36.5,108.4,37 M112.4,30.3
		c-0.4-0.5-1-0.7-1.9-0.7c-0.6,0-1,0.1-1.4,0.3c-0.4,0.2-0.7,0.4-0.9,0.7c-0.2,0.3-0.4,0.6-0.5,0.9c0,0.1-0.1,0.3-0.1,0.4
		c-0.1,0.2,0.1,0.5,0.4,0.5h4.7c0.3,0,0.4-0.2,0.4-0.5C113,31.2,112.7,30.7,112.4,30.3z"/>
	<path style="clip-path:url(#SVGID_1_);fill:#4E4E4F;" d="M121,27.3c0.2,0,0.4,0.2,0.4,0.4v1.4h0.1c0.4-0.7,1-1.3,1.7-1.6
		c0.7-0.3,1.4-0.5,2.2-0.5c0.9,0,1.7,0.1,2.3,0.4c0.6,0.3,1.1,0.6,1.4,1.1c0.3,0.4,0.6,1,0.7,1.6c0.1,0.6,0.2,1.4,0.2,2.1v7.4
		c0,0.2-0.2,0.4-0.4,0.4h-2.7c-0.2,0-0.4-0.2-0.4-0.4v-6.8c0-1-0.2-1.8-0.5-2.3c-0.3-0.5-0.9-0.8-1.7-0.8c-0.9,0-1.6,0.3-2.1,0.8
		c-0.4,0.6-0.6,1.5-0.6,2.8v6.2c0,0.2-0.2,0.4-0.4,0.4h-2.7c-0.2,0-0.4-0.2-0.4-0.4V27.7c0-0.2,0.2-0.4,0.4-0.4H121"/>
	<path style="clip-path:url(#SVGID_1_);fill:#4E4E4F;" d="M139.3,31.2c-0.2,0-0.4-0.2-0.4-0.4c0.1-0.6,0.3-1.1,0.6-1.6
		c0.4-0.5,0.8-1,1.4-1.3c0.6-0.3,1.2-0.6,1.9-0.7c0.7-0.1,1.4-0.2,2.1-0.2c0.6,0,1.3,0,1.9,0.1c0.7,0.1,1.2,0.3,1.8,0.5
		c0.5,0.3,1,0.6,1.3,1.1c0.3,0.5,0.5,1.1,0.5,1.8v6.6c0,0.6,0,1.1,0.1,1.6c0,0.3,0.1,0.5,0.1,0.7c0.1,0.2-0.1,0.5-0.4,0.5h-2.6
		c-0.2,0-0.3-0.1-0.4-0.3c0-0.1-0.1-0.2-0.1-0.3c0-0.2-0.1-0.4-0.1-0.6c-0.6,0.6-1.2,1-2,1.2c-0.7,0.2-1.5,0.3-2.3,0.3
		c-0.6,0-1.2-0.1-1.7-0.2c-0.5-0.1-1-0.4-1.4-0.7c-0.4-0.3-0.7-0.7-0.9-1.2c-0.2-0.5-0.3-1-0.3-1.7c0-0.7,0.1-1.3,0.4-1.8
		c0.3-0.5,0.6-0.8,1-1.1c0.4-0.3,0.9-0.5,1.4-0.6c0.5-0.1,1-0.2,1.6-0.3c0.5-0.1,1-0.1,1.5-0.2c0.5,0,1-0.1,1.3-0.2
		c0.4-0.1,0.7-0.2,0.9-0.4c0.2-0.2,0.3-0.5,0.3-0.8c0-0.4-0.1-0.7-0.2-0.9c-0.1-0.2-0.3-0.4-0.5-0.5c-0.2-0.1-0.4-0.2-0.7-0.2
		c-0.3,0-0.6-0.1-0.9-0.1c-0.7,0-1.2,0.1-1.6,0.4c-0.3,0.2-0.5,0.6-0.6,1.2c0,0.2-0.2,0.3-0.4,0.3H139.3 M146.9,33.8
		c-0.1,0.1-0.3,0.2-0.6,0.3c-0.2,0.1-0.5,0.1-0.7,0.2c-0.3,0-0.5,0.1-0.8,0.1c-0.3,0-0.6,0.1-0.8,0.1c-0.3,0-0.5,0.1-0.8,0.2
		c-0.3,0.1-0.5,0.2-0.7,0.3c-0.2,0.1-0.3,0.3-0.5,0.5c-0.1,0.2-0.2,0.5-0.2,0.8c0,0.3,0.1,0.6,0.2,0.8c0.1,0.2,0.3,0.4,0.5,0.5
		c0.2,0.1,0.4,0.2,0.7,0.3c0.3,0,0.5,0.1,0.8,0.1c0.7,0,1.2-0.1,1.6-0.3c0.4-0.2,0.7-0.5,0.8-0.8c0.2-0.3,0.3-0.6,0.3-1
		c0-0.3,0.1-0.6,0.1-0.8V33.8z"/>
	<path style="clip-path:url(#SVGID_1_);fill:#4E4E4F;" d="M64.5,26.3v13.3c0,0.2,0.2,0.4,0.4,0.4h2.7c0.2,0,0.4-0.2,0.4-0.4V24.7
		c0-0.3-0.3-0.5-0.6-0.3L64.7,26C64.6,26,64.5,26.1,64.5,26.3"/>
	<path style="clip-path:url(#SVGID_1_);fill:#4E4E4F;" d="M152.4,26.3v13.3c0,0.2,0.2,0.4,0.4,0.4h2.7c0.2,0,0.4-0.2,0.4-0.4V24.7
		c0-0.3-0.3-0.5-0.6-0.3l-2.7,1.6C152.5,26,152.4,26.1,152.4,26.3"/>
	<path style="clip-path:url(#SVGID_1_);fill:#4E4E4F;" d="M137.2,27.3h-1.8c-0.2,0-0.4-0.2-0.4-0.4v-2.2c0-0.3-0.3-0.5-0.6-0.3
		l-2.7,1.6c-0.1,0.1-0.2,0.2-0.2,0.3v10.8c0,0.6,0.1,1.1,0.3,1.5c0.2,0.4,0.5,0.7,0.9,0.9c0.4,0.2,0.8,0.4,1.3,0.4
		c0.5,0.1,1,0.1,1.5,0.1c0.3,0,0.5,0,0.8,0c0.2,0,0.4-0.2,0.4-0.4v-1.9c0-0.2-0.2-0.4-0.4-0.4c-0.5,0-0.8-0.1-1-0.3
		c-0.2-0.2-0.3-0.6-0.3-1.2V30c0-0.2,0.2-0.4,0.4-0.4h1.8c0.2,0,0.4-0.2,0.4-0.4v-1.6C137.6,27.5,137.4,27.3,137.2,27.3"/>
	<path style="clip-path:url(#SVGID_1_);fill:#F8991D;" d="M41.3,12L28.4,4.6c-1.6-0.9-3.5-0.9-5,0L10.4,12c-1.6,0.9-2.5,2.6-2.5,4.4
		v14.9c0,1.8,1,3.5,2.5,4.4l12.9,7.5c1.6,0.9,3.5,0.9,5,0l12.9-7.5c1.6-0.9,2.5-2.6,2.5-4.4V16.4C43.8,14.6,42.8,12.9,41.3,12
		 M37.7,20.6c0,0.1-0.1,0.2-0.2,0.3l-10.8,6.2c-0.4,0.2-0.9-0.1-0.9-0.5v-3.3c0-0.3,0.2-0.7,0.5-0.8l6.2-3.6
		c-0.1-0.1-0.2-0.1-0.3-0.2l-5.1-2.9c-0.8-0.5-1.7-0.5-2.5,0l-5.1,2.9c-0.8,0.5-1.3,1.3-1.3,2.2v5.9c0,0.9,0.5,1.7,1.3,2.2l5.1,2.9
		c0.8,0.5,1.7,0.5,2.5,0l10.4-6c0.1-0.1,0.2,0,0.2,0.1v2.5c0,1.4-0.7,2.6-1.9,3.3l-8.1,4.7c-1.2,0.7-2.6,0.7-3.8,0l-8.1-4.7
		c-1.2-0.7-1.9-1.9-1.9-3.3v-9.4c0-1.4,0.7-2.6,1.9-3.3l8.1-4.7c1.2-0.7,2.6-0.7,3.8,0l8.1,4.7c1.2,0.7,1.9,1.9,1.9,3.3V20.6z"/>
</g>
<line class="st61" x1="170" y1="11.1" x2="170" y2="39.6"/>
<g>
	<g>
		<path class="st64" d="M186.2,37.2c-0.4,0-0.7-0.1-1-0.3c-0.3-0.2-0.5-0.5-0.7-0.8V39h-0.6v-6.6h0.5v0.9c0.2-0.3,0.4-0.5,0.7-0.7
			s0.6-0.3,1-0.3c0.3,0,0.6,0.1,0.9,0.2s0.5,0.3,0.7,0.5s0.4,0.5,0.5,0.8c0.1,0.3,0.2,0.6,0.2,0.9c0,0.3-0.1,0.6-0.2,0.9
			c-0.1,0.3-0.2,0.6-0.4,0.8s-0.4,0.4-0.7,0.5C186.8,37.1,186.5,37.2,186.2,37.2z M186,36.7c0.3,0,0.5-0.1,0.7-0.2
			c0.2-0.1,0.4-0.3,0.5-0.4c0.1-0.2,0.3-0.4,0.3-0.6c0.1-0.2,0.1-0.5,0.1-0.7c0-0.3,0-0.5-0.1-0.7s-0.2-0.4-0.4-0.6
			s-0.3-0.3-0.6-0.4c-0.2-0.1-0.4-0.2-0.7-0.2c-0.2,0-0.3,0-0.5,0.1c-0.2,0.1-0.3,0.1-0.5,0.3c-0.1,0.1-0.3,0.2-0.4,0.4
			c-0.1,0.1-0.2,0.3-0.2,0.4v1.4c0.1,0.2,0.2,0.3,0.3,0.5s0.2,0.3,0.4,0.4c0.1,0.1,0.3,0.2,0.5,0.2S185.9,36.7,186,36.7z"/>
		<path class="st64" d="M192.6,37.2c-0.3,0-0.7-0.1-0.9-0.2s-0.5-0.3-0.7-0.5c-0.2-0.2-0.4-0.5-0.5-0.8c-0.1-0.3-0.2-0.6-0.2-0.9
			c0-0.3,0.1-0.6,0.2-0.9c0.1-0.3,0.3-0.6,0.5-0.8s0.5-0.4,0.7-0.5s0.6-0.2,0.9-0.2c0.3,0,0.6,0.1,0.9,0.2s0.5,0.3,0.7,0.5
			c0.2,0.2,0.4,0.5,0.5,0.8c0.1,0.3,0.2,0.6,0.2,0.9c0,0.3-0.1,0.6-0.2,0.9c-0.1,0.3-0.3,0.6-0.5,0.8c-0.2,0.2-0.5,0.4-0.7,0.5
			S192.9,37.2,192.6,37.2z M190.9,34.8c0,0.3,0,0.5,0.1,0.7c0.1,0.2,0.2,0.4,0.4,0.6c0.2,0.2,0.3,0.3,0.5,0.4
			c0.2,0.1,0.4,0.1,0.7,0.1c0.2,0,0.5,0,0.7-0.1s0.4-0.2,0.5-0.4c0.2-0.2,0.3-0.4,0.4-0.6c0.1-0.2,0.1-0.5,0.1-0.7
			c0-0.3,0-0.5-0.1-0.7c-0.1-0.2-0.2-0.4-0.4-0.6c-0.2-0.2-0.3-0.3-0.5-0.4s-0.4-0.1-0.7-0.1c-0.2,0-0.5,0-0.7,0.1s-0.4,0.2-0.5,0.4
			c-0.2,0.2-0.3,0.4-0.4,0.6C190.9,34.3,190.9,34.5,190.9,34.8z"/>
		<path class="st64" d="M202.9,32.4h0.6l-2,4.7H201l-1-2.4l-1,2.4h-0.5l-2-4.7h0.6l1.7,4.1l0.9-2.1l-0.8-1.9h0.5L200,34l0.6-1.5h0.5
			l-0.8,1.9l0.9,2.1L202.9,32.4z"/>
		<path class="st64" d="M207.4,37.2c-0.3,0-0.7-0.1-0.9-0.2s-0.5-0.3-0.7-0.5c-0.2-0.2-0.4-0.5-0.5-0.8c-0.1-0.3-0.2-0.6-0.2-0.9
			c0-0.3,0.1-0.6,0.2-0.9c0.1-0.3,0.3-0.5,0.5-0.8s0.5-0.4,0.7-0.5c0.3-0.1,0.6-0.2,0.9-0.2c0.3,0,0.7,0.1,0.9,0.2
			c0.3,0.1,0.5,0.3,0.7,0.5s0.4,0.5,0.5,0.8c0.1,0.3,0.2,0.6,0.2,0.9c0,0,0,0.1,0,0.1c0,0,0,0.1,0,0.1h-4c0,0.3,0.1,0.5,0.2,0.7
			c0.1,0.2,0.2,0.4,0.4,0.6s0.3,0.3,0.5,0.4s0.4,0.1,0.6,0.1c0.1,0,0.3,0,0.5-0.1s0.3-0.1,0.4-0.2c0.1-0.1,0.2-0.2,0.3-0.3
			c0.1-0.1,0.2-0.2,0.2-0.3l0.5,0.1c-0.1,0.2-0.2,0.3-0.3,0.5s-0.3,0.3-0.5,0.4c-0.2,0.1-0.4,0.2-0.6,0.2
			C207.9,37.2,207.7,37.2,207.4,37.2z M209.2,34.5c0-0.3-0.1-0.5-0.2-0.7c-0.1-0.2-0.2-0.4-0.4-0.5c-0.2-0.1-0.3-0.3-0.5-0.4
			c-0.2-0.1-0.4-0.1-0.6-0.1s-0.4,0-0.6,0.1s-0.4,0.2-0.5,0.4c-0.2,0.2-0.3,0.3-0.4,0.5c-0.1,0.2-0.1,0.4-0.2,0.7H209.2z"/>
		<path class="st64" d="M214.3,33c-0.4,0-0.8,0.1-1.1,0.3s-0.5,0.5-0.6,0.9v2.9h-0.6v-4.7h0.6v1.1c0.2-0.4,0.4-0.6,0.7-0.8
			c0.3-0.2,0.6-0.3,0.9-0.3c0,0,0.1,0,0.1,0V33z"/>
		<path class="st64" d="M218.1,37.2c-0.3,0-0.7-0.1-0.9-0.2s-0.5-0.3-0.7-0.5c-0.2-0.2-0.4-0.5-0.5-0.8c-0.1-0.3-0.2-0.6-0.2-0.9
			c0-0.3,0.1-0.6,0.2-0.9c0.1-0.3,0.3-0.5,0.5-0.8s0.5-0.4,0.7-0.5c0.3-0.1,0.6-0.2,0.9-0.2c0.3,0,0.7,0.1,0.9,0.2
			c0.3,0.1,0.5,0.3,0.7,0.5s0.4,0.5,0.5,0.8c0.1,0.3,0.2,0.6,0.2,0.9c0,0,0,0.1,0,0.1c0,0,0,0.1,0,0.1h-4c0,0.3,0.1,0.5,0.2,0.7
			c0.1,0.2,0.2,0.4,0.4,0.6s0.3,0.3,0.5,0.4s0.4,0.1,0.6,0.1c0.1,0,0.3,0,0.5-0.1s0.3-0.1,0.4-0.2c0.1-0.1,0.2-0.2,0.3-0.3
			c0.1-0.1,0.2-0.2,0.2-0.3l0.5,0.1c-0.1,0.2-0.2,0.3-0.3,0.5s-0.3,0.3-0.5,0.4c-0.2,0.1-0.4,0.2-0.6,0.2
			C218.6,37.2,218.3,37.2,218.1,37.2z M219.9,34.5c0-0.3-0.1-0.5-0.2-0.7c-0.1-0.2-0.2-0.4-0.4-0.5c-0.2-0.1-0.3-0.3-0.5-0.4
			c-0.2-0.1-0.4-0.1-0.6-0.1s-0.4,0-0.6,0.1s-0.4,0.2-0.5,0.4c-0.2,0.2-0.3,0.3-0.4,0.5c-0.1,0.2-0.1,0.4-0.2,0.7H219.9z"/>
		<path class="st64" d="M224.5,37.2c-0.3,0-0.6-0.1-0.9-0.2c-0.3-0.1-0.5-0.3-0.7-0.5s-0.4-0.5-0.5-0.8c-0.1-0.3-0.2-0.6-0.2-0.9
			c0-0.3,0.1-0.6,0.2-0.9c0.1-0.3,0.3-0.6,0.4-0.8c0.2-0.2,0.4-0.4,0.7-0.5c0.3-0.1,0.5-0.2,0.9-0.2c0.4,0,0.7,0.1,1.1,0.3
			c0.3,0.2,0.5,0.5,0.7,0.8v-2.9h0.6v5.8c0,0.2,0.1,0.3,0.2,0.3v0.5c-0.1,0-0.2,0-0.2,0c-0.1,0-0.3,0-0.4-0.1
			c-0.1-0.1-0.2-0.2-0.2-0.3v-0.5c-0.2,0.3-0.4,0.5-0.8,0.7S224.9,37.2,224.5,37.2z M224.7,36.7c0.2,0,0.3,0,0.5-0.1
			c0.2-0.1,0.3-0.1,0.5-0.2s0.3-0.2,0.4-0.4c0.1-0.1,0.2-0.3,0.2-0.5V34c-0.1-0.2-0.1-0.3-0.3-0.5c-0.1-0.1-0.2-0.3-0.4-0.4
			c-0.1-0.1-0.3-0.2-0.5-0.3c-0.2-0.1-0.3-0.1-0.5-0.1c-0.3,0-0.5,0.1-0.7,0.2s-0.4,0.3-0.5,0.4c-0.1,0.2-0.3,0.4-0.3,0.6
			c-0.1,0.2-0.1,0.5-0.1,0.7c0,0.3,0,0.5,0.1,0.7s0.2,0.4,0.4,0.6c0.2,0.2,0.3,0.3,0.6,0.4C224.2,36.6,224.4,36.7,224.7,36.7z"/>
		<path class="st64" d="M235.3,37.2c-0.4,0-0.7-0.1-1-0.3s-0.6-0.4-0.7-0.7v0.9H233v-6.6h0.6v2.9c0.2-0.3,0.5-0.6,0.8-0.8
			c0.3-0.2,0.6-0.3,1-0.3c0.3,0,0.6,0.1,0.9,0.2c0.3,0.1,0.5,0.3,0.7,0.6c0.2,0.2,0.3,0.5,0.4,0.8c0.1,0.3,0.1,0.6,0.1,0.9
			c0,0.3-0.1,0.6-0.2,0.9c-0.1,0.3-0.3,0.6-0.5,0.8s-0.4,0.4-0.7,0.5S235.6,37.2,235.3,37.2z M235.1,36.7c0.3,0,0.5-0.1,0.7-0.2
			s0.4-0.2,0.5-0.4s0.3-0.4,0.4-0.6s0.1-0.5,0.1-0.7c0-0.2,0-0.5-0.1-0.7s-0.2-0.4-0.3-0.6c-0.1-0.2-0.3-0.3-0.5-0.4
			c-0.2-0.1-0.4-0.2-0.7-0.2c-0.2,0-0.4,0-0.5,0.1c-0.2,0.1-0.3,0.1-0.5,0.3c-0.1,0.1-0.3,0.2-0.4,0.4c-0.1,0.1-0.2,0.3-0.3,0.4v1.5
			c0,0.2,0.1,0.3,0.2,0.5c0.1,0.1,0.2,0.3,0.4,0.4c0.1,0.1,0.3,0.2,0.5,0.2C234.8,36.6,235,36.7,235.1,36.7z"/>
		<path class="st64" d="M239.9,38.6c0,0,0.1,0,0.1,0c0,0,0.1,0,0.1,0c0.1,0,0.2,0,0.3,0c0.1,0,0.1-0.1,0.2-0.2
			c0.1-0.1,0.1-0.2,0.2-0.4c0.1-0.2,0.2-0.5,0.3-0.8l-2-4.7h0.6l1.7,4.1l1.6-4.1h0.6l-2.4,6.1c-0.1,0.2-0.2,0.3-0.3,0.5
			c-0.2,0.1-0.4,0.2-0.6,0.2c-0.1,0-0.1,0-0.2,0c-0.1,0-0.1,0-0.2,0V38.6z"/>
		<path class="st64" d="M248.7,33.9c0-0.4,0.1-0.8,0.2-1.1s0.3-0.7,0.6-1s0.6-0.5,1-0.7c0.4-0.2,0.8-0.3,1.3-0.3
			c0.6,0,1.1,0.1,1.5,0.4s0.7,0.6,0.9,1l-0.5,0.3c-0.1-0.2-0.2-0.4-0.4-0.5s-0.3-0.3-0.5-0.4c-0.2-0.1-0.3-0.2-0.5-0.2
			s-0.4-0.1-0.5-0.1c-0.4,0-0.7,0.1-1,0.2c-0.3,0.2-0.5,0.4-0.7,0.6c-0.2,0.3-0.4,0.5-0.5,0.9c-0.1,0.3-0.2,0.6-0.2,1
			c0,0.4,0.1,0.7,0.2,1s0.3,0.6,0.5,0.9c0.2,0.2,0.5,0.4,0.8,0.6c0.3,0.1,0.6,0.2,1,0.2c0.2,0,0.4,0,0.6-0.1c0.2,0,0.4-0.1,0.5-0.2
			c0.2-0.1,0.3-0.2,0.5-0.4c0.2-0.1,0.3-0.3,0.4-0.5l0.5,0.3c-0.1,0.2-0.2,0.5-0.4,0.6c-0.2,0.2-0.4,0.3-0.6,0.5
			c-0.2,0.1-0.5,0.2-0.7,0.3c-0.3,0.1-0.5,0.1-0.8,0.1c-0.4,0-0.8-0.1-1.2-0.3c-0.4-0.2-0.7-0.4-0.9-0.8c-0.3-0.3-0.5-0.7-0.6-1.1
			C248.8,34.7,248.7,34.3,248.7,33.9z"/>
		<path class="st64" d="M258.8,33c-0.4,0-0.8,0.1-1.1,0.3s-0.5,0.5-0.6,0.9v2.9h-0.6v-4.7h0.6v1.1c0.2-0.4,0.4-0.6,0.7-0.8
			c0.3-0.2,0.6-0.3,0.9-0.3c0,0,0.1,0,0.1,0V33z"/>
		<path class="st64" d="M261.9,37.2c-0.2,0-0.4,0-0.6-0.1c-0.2-0.1-0.4-0.2-0.5-0.3c-0.1-0.1-0.3-0.3-0.3-0.5
			c-0.1-0.2-0.1-0.4-0.1-0.6s0-0.4,0.1-0.6s0.2-0.3,0.4-0.5c0.2-0.1,0.4-0.2,0.6-0.3c0.2-0.1,0.5-0.1,0.8-0.1c0.2,0,0.5,0,0.7,0.1
			s0.5,0.1,0.7,0.2v-0.4c0-0.4-0.1-0.7-0.4-1s-0.6-0.4-1-0.4c-0.2,0-0.5,0-0.7,0.1c-0.3,0.1-0.5,0.2-0.8,0.4l-0.2-0.4
			c0.6-0.4,1.2-0.6,1.8-0.6c0.6,0,1.1,0.2,1.4,0.5c0.3,0.3,0.5,0.8,0.5,1.4v2.1c0,0.2,0.1,0.3,0.2,0.3v0.5c-0.1,0-0.2,0-0.2,0
			c-0.2,0-0.3,0-0.4-0.1c-0.1-0.1-0.1-0.2-0.1-0.3l0-0.4c-0.2,0.3-0.5,0.5-0.8,0.6C262.7,37.1,262.3,37.2,261.9,37.2z M262.1,36.7
			c0.3,0,0.6-0.1,0.9-0.2c0.3-0.1,0.5-0.3,0.6-0.5c0.1-0.1,0.1-0.1,0.1-0.2s0-0.1,0-0.2V35c-0.2-0.1-0.4-0.1-0.6-0.2
			c-0.2,0-0.4-0.1-0.7-0.1c-0.4,0-0.8,0.1-1.1,0.3c-0.3,0.2-0.4,0.4-0.4,0.7c0,0.1,0,0.3,0.1,0.4c0.1,0.1,0.1,0.2,0.2,0.3
			c0.1,0.1,0.2,0.2,0.4,0.2C261.8,36.7,261.9,36.7,262.1,36.7z"/>
		<path class="st64" d="M267.1,37.1v-4.2h-0.6v-0.5h0.6v-0.1c0-0.6,0.1-1,0.4-1.4c0.2-0.3,0.6-0.5,1-0.5c0.2,0,0.4,0,0.5,0.1
			s0.3,0.1,0.5,0.2l-0.2,0.4c-0.1-0.1-0.2-0.1-0.3-0.2s-0.2-0.1-0.4-0.1c-0.3,0-0.5,0.1-0.7,0.3s-0.2,0.5-0.2,1v0.1h1.3v0.5h-1.3
			v4.2H267.1z"/>
		<path class="st64" d="M273.3,36.9c0,0-0.1,0-0.2,0.1c-0.1,0-0.1,0.1-0.2,0.1s-0.2,0.1-0.3,0.1s-0.2,0-0.4,0c-0.1,0-0.3,0-0.4-0.1
			s-0.2-0.1-0.3-0.2s-0.2-0.2-0.2-0.3c-0.1-0.1-0.1-0.2-0.1-0.4v-3.4h-0.6v-0.5h0.6v-1.6h0.6v1.6h1.1v0.5h-1.1v3.2
			c0,0.2,0.1,0.3,0.2,0.4c0.1,0.1,0.2,0.1,0.4,0.1c0.2,0,0.3,0,0.5-0.1c0.1-0.1,0.2-0.1,0.3-0.1L273.3,36.9z"/>
		<path class="st64" d="M277.2,37.2c-0.3,0-0.7-0.1-0.9-0.2s-0.5-0.3-0.7-0.5c-0.2-0.2-0.4-0.5-0.5-0.8c-0.1-0.3-0.2-0.6-0.2-0.9
			c0-0.3,0.1-0.6,0.2-0.9c0.1-0.3,0.3-0.5,0.5-0.8s0.5-0.4,0.7-0.5c0.3-0.1,0.6-0.2,0.9-0.2c0.3,0,0.7,0.1,0.9,0.2
			c0.3,0.1,0.5,0.3,0.7,0.5s0.4,0.5,0.5,0.8c0.1,0.3,0.2,0.6,0.2,0.9c0,0,0,0.1,0,0.1c0,0,0,0.1,0,0.1h-4c0,0.3,0.1,0.5,0.2,0.7
			c0.1,0.2,0.2,0.4,0.4,0.6s0.3,0.3,0.5,0.4s0.4,0.1,0.6,0.1c0.1,0,0.3,0,0.5-0.1s0.3-0.1,0.4-0.2c0.1-0.1,0.2-0.2,0.3-0.3
			c0.1-0.1,0.2-0.2,0.2-0.3l0.5,0.1c-0.1,0.2-0.2,0.3-0.3,0.5s-0.3,0.3-0.5,0.4c-0.2,0.1-0.4,0.2-0.6,0.2
			C277.7,37.2,277.5,37.2,277.2,37.2z M279,34.5c0-0.3-0.1-0.5-0.2-0.7c-0.1-0.2-0.2-0.4-0.4-0.5c-0.2-0.1-0.3-0.3-0.5-0.4
			c-0.2-0.1-0.4-0.1-0.6-0.1s-0.4,0-0.6,0.1s-0.4,0.2-0.5,0.4c-0.2,0.2-0.3,0.3-0.4,0.5c-0.1,0.2-0.1,0.4-0.2,0.7H279z"/>
		<path class="st64" d="M284.1,33c-0.4,0-0.8,0.1-1.1,0.3s-0.5,0.5-0.6,0.9v2.9h-0.6v-4.7h0.6v1.1c0.2-0.4,0.4-0.6,0.7-0.8
			c0.3-0.2,0.6-0.3,0.9-0.3c0,0,0.1,0,0.1,0V33z"/>
		<path class="st64" d="M289.1,33.9c0-0.4,0.1-0.8,0.2-1.1s0.3-0.7,0.6-1s0.6-0.5,1-0.7c0.4-0.2,0.8-0.3,1.3-0.3
			c0.6,0,1.1,0.1,1.5,0.4s0.7,0.6,0.9,1l-0.5,0.3c-0.1-0.2-0.2-0.4-0.4-0.5s-0.3-0.3-0.5-0.4c-0.2-0.1-0.3-0.2-0.5-0.2
			s-0.4-0.1-0.5-0.1c-0.4,0-0.7,0.1-1,0.2c-0.3,0.2-0.5,0.4-0.7,0.6c-0.2,0.3-0.4,0.5-0.5,0.9c-0.1,0.3-0.2,0.6-0.2,1
			c0,0.4,0.1,0.7,0.2,1s0.3,0.6,0.5,0.9c0.2,0.2,0.5,0.4,0.8,0.6c0.3,0.1,0.6,0.2,1,0.2c0.2,0,0.4,0,0.6-0.1c0.2,0,0.4-0.1,0.5-0.2
			c0.2-0.1,0.3-0.2,0.5-0.4c0.2-0.1,0.3-0.3,0.4-0.5l0.5,0.3c-0.1,0.2-0.2,0.5-0.4,0.6c-0.2,0.2-0.4,0.3-0.6,0.5
			c-0.2,0.1-0.5,0.2-0.7,0.3c-0.3,0.1-0.5,0.1-0.8,0.1c-0.4,0-0.8-0.1-1.2-0.3c-0.4-0.2-0.7-0.4-0.9-0.8c-0.3-0.3-0.5-0.7-0.6-1.1
			C289.2,34.7,289.1,34.3,289.1,33.9z"/>
		<path class="st64" d="M302.6,37.1v-5.3l-2.3,4.1h-0.4l-2.3-4.1v5.3H297v-6.4h0.6l2.5,4.4l2.5-4.4h0.6v6.4H302.6z"/>
		<path class="st64" d="M309.9,31.9c-0.2-0.2-0.4-0.4-0.7-0.5c-0.3-0.1-0.6-0.2-1-0.2c-0.6,0-1,0.1-1.2,0.3
			c-0.3,0.2-0.4,0.5-0.4,0.9c0,0.2,0,0.4,0.1,0.5s0.2,0.2,0.3,0.3c0.1,0.1,0.3,0.2,0.6,0.2c0.2,0.1,0.5,0.1,0.8,0.2
			c0.3,0.1,0.7,0.2,0.9,0.2c0.3,0.1,0.5,0.2,0.7,0.3c0.2,0.1,0.3,0.3,0.4,0.5c0.1,0.2,0.2,0.4,0.2,0.7c0,0.3-0.1,0.5-0.2,0.8
			s-0.3,0.4-0.5,0.5s-0.4,0.3-0.7,0.3c-0.3,0.1-0.6,0.1-0.9,0.1c-1,0-1.8-0.3-2.6-0.9l0.3-0.5c0.1,0.1,0.3,0.2,0.4,0.3
			s0.3,0.2,0.5,0.3s0.4,0.1,0.6,0.2c0.2,0,0.5,0.1,0.7,0.1c0.5,0,0.9-0.1,1.2-0.3c0.3-0.2,0.4-0.5,0.4-0.8c0-0.2,0-0.4-0.1-0.5
			s-0.2-0.3-0.4-0.4c-0.2-0.1-0.4-0.2-0.6-0.3c-0.2-0.1-0.5-0.1-0.8-0.2c-0.3-0.1-0.6-0.2-0.9-0.2c-0.3-0.1-0.5-0.2-0.6-0.3
			c-0.2-0.1-0.3-0.3-0.4-0.5c-0.1-0.2-0.1-0.4-0.1-0.7c0-0.3,0.1-0.6,0.2-0.8c0.1-0.2,0.3-0.4,0.5-0.6c0.2-0.2,0.4-0.3,0.7-0.4
			c0.3-0.1,0.6-0.1,0.9-0.1c0.4,0,0.8,0.1,1.1,0.2c0.3,0.1,0.6,0.3,0.9,0.5L309.9,31.9z"/>
	</g>
	<g>
		<path class="st65" d="M230,13.1c-3.7,0-6.6,3-6.6,6.6s3,6.6,6.6,6.6c3.7,0,6.6-3,6.6-6.6S233.7,13.1,230,13.1z M227.9,23.2v-6.8
			l6,3.4L227.9,23.2z"/>
		<g>
			<path class="st64" d="M187.2,26.1l-4.8-12.6h2.2l2.4,6.4c0.9,2.5,1.5,4,1.5,4h0c0,0,0.5-1.5,1.5-3.9l2.4-6.5h2.1l-4.8,12.6H187.2
				z"/>
			<path class="st64" d="M195.9,13.5h2v12.6h-2V13.5z"/>
			<path class="st64" d="M204.9,13.5c3.9,0,6.7,2.5,6.7,6.4c0,3.9-2.8,6.3-6.6,6.3h-4.8V13.5H204.9z M204.9,24.2
				c2.5,0,4.7-1.4,4.7-4.4c0-3-2.2-4.5-4.8-4.5h-2.6v8.9H204.9z"/>
			<path class="st64" d="M213.3,13.5h8.7v1.9h-6.7v3.3h5.2v1.9h-5.2v3.7h6.8v1.9h-8.8V13.5z"/>
			<path class="st64" d="M253.9,22.5c-1,2.4-3.2,3.8-5.9,3.8c-3.7,0-6.5-2.6-6.5-6.6c0-3.9,2.8-6.5,6.5-6.5c2.9,0,5,1.6,5.8,3.5
				l-2,0.5c-0.5-0.9-1.7-2.2-3.9-2.2c-2.6,0-4.4,1.8-4.4,4.7c0,2.9,1.9,4.7,4.4,4.7c1.9,0,3.4-1,4.1-2.5L253.9,22.5z"/>
			<path class="st64" d="M255.6,13.5h8.7v1.9h-6.7v3.3h5.2v1.9h-5.2v3.7h6.8v1.9h-8.8V13.5z"/>
			<path class="st64" d="M268.3,16.7L268.3,16.7c0,0,0,1.5,0,3.1v6.3h-2V13.5h2l6.7,9.2h0.1c0,0,0-1.5,0-3v-6.3h2v12.6h-2
				L268.3,16.7z"/>
			<path class="st64" d="M284.9,15.3v10.8h-2V15.3h-4.2v-1.9h10.3v1.9H284.9z"/>
			<path class="st64" d="M290.8,13.5h8.7v1.9h-6.7v3.3h5.2v1.9h-5.2v3.7h6.8v1.9h-8.8V13.5z"/>
			<path class="st64" d="M305.7,21.4c-0.2,0-0.7,0-1,0h-1.3v4.7h-2V13.5h4.2c3,0,4.8,1.5,4.8,4c0,1.9-1,3.1-2.7,3.5l3,5.1h-2.4
				L305.7,21.4z M305.8,19.8c1.6,0,2.6-0.6,2.6-2.2c0-1.5-1-2.3-2.7-2.3h-2.3v4.5H305.8z"/>
		</g>
	</g>
</g>
</svg>
